<?xml version="1.0" encoding="UTF-8" standalone="no"?>
<!-- Creator: CorelDRAW X8 -->

<svg
   xmlns:dc="http://purl.org/dc/elements/1.1/"
   xmlns:cc="http://creativecommons.org/ns#"
   xmlns:rdf="http://www.w3.org/1999/02/22-rdf-syntax-ns#"
   xmlns:svg="http://www.w3.org/2000/svg"
   xmlns="http://www.w3.org/2000/svg"
   xmlns:sodipodi="http://sodipodi.sourceforge.net/DTD/sodipodi-0.dtd"
   xmlns:inkscape="http://www.inkscape.org/namespaces/inkscape"
   xml:space="preserve"
   width="23.495401mm"
   height="26.633835mm"
   version="1.1"
   style="clip-rule:evenodd;fill-rule:evenodd;image-rendering:optimizeQuality;shape-rendering:geometricPrecision;text-rendering:geometricPrecision"
   viewBox="0 0 747.73422 847.90636"
   id="svg2"
   inkscape:version="0.91 r13725"
   sodipodi:docname="residencias FMAC.svg"><metadata
     id="metadata63"><rdf:RDF><cc:Work
         rdf:about=""><dc:format>image/svg+xml</dc:format><dc:type
           rdf:resource="http://purl.org/dc/dcmitype/StillImage" /><dc:title></dc:title></cc:Work></rdf:RDF></metadata><sodipodi:namedview
     pagecolor="#ffffff"
     bordercolor="#666666"
     borderopacity="1"
     objecttolerance="10"
     gridtolerance="10"
     guidetolerance="10"
     inkscape:pageopacity="0"
     inkscape:pageshadow="2"
     inkscape:window-width="1366"
     inkscape:window-height="705"
     id="namedview61"
     showgrid="false"
     showguides="false"
     inkscape:guide-bbox="true"
     inkscape:zoom="4.9442633"
     inkscape:cx="54.668363"
     inkscape:cy="44.680298"
     inkscape:window-x="1280"
     inkscape:window-y="285"
     inkscape:window-maximized="1"
     inkscape:current-layer="svg2"
     fit-margin-top="0"
     fit-margin-left="0"
     fit-margin-right="0"
     fit-margin-bottom="0"><sodipodi:guide
       position="-169.7548,-37.841382"
       orientation="0,1"
       id="guide3447" /></sodipodi:namedview><defs
     id="defs4"><style
       type="text/css"
       id="style6"><![CDATA[
    .fil0 {fill:#435A73}
    .fil3 {fill:#5E84AA}
    .fil6 {fill:#664E41}
    .fil1 {fill:#745072}
    .fil2 {fill:#849041}
    .fil4 {fill:#C44E56}
    .fil5 {fill:#E6AA7D}
    .fil7 {fill:#EEA851}
   ]]></style><clipPath
       id="id0"><path
         d="M 0,2 1541,0 1541,1211 0,1213 0,2 Z"
         id="path9"
         inkscape:connector-curvature="0" /></clipPath></defs><path
     class="fil0"
     d="m 373.5281,413.01118 c 8,-13 19,-50 25,-67 12,-36 10,-12 54,-37 152,-86 88,-306.0000027 -76,-309.00000275 -189,-1.99999995 -227,265.00000275 -54,320.00000275 33,11 21,9 51,93 z"
     id="path19"
     inkscape:connector-curvature="0"
     style="fill:#fccf14;fill-opacity:1" /><path
     class="fil1"
     d="m 0.05378044,182.01118 c 0,90 -7.87202024,94 79.70419756,94 10.824026,15 26.568062,67 31.488072,87 0.98401,-1 1.968,-3 1.968,-2 l 29.52009,-85 c 44.2801,0 55.10413,8 80.6882,-20 -4.92002,-24 -18.69605,-40 -21.64806,-74 -6.88802,-70 50.18413,-59 -151.536373,-59 -43.2961116,0 -50.18412656,16 -50.18412656,59 z"
     id="path21"
     inkscape:connector-curvature="0"
     style="fill:#63c62f;fill-opacity:1" /><path
     class="fil4"
     d="m 551.77615,152.01118 c -1.06778,82 -22.42323,82 -33.10095,114 32.03317,29 35.23649,22 79.01516,37 l 23.491,60 c 9.60994,-10 13.88106,-31 20.28774,-48 8.54213,-21 22.42322,-13 45.91416,-23 29.89763,-13 65.13409,-38 59.79525,-80 -9.60997,-70 -123.8616,-89 -195.40236,-60 z"
     id="path27"
     inkscape:connector-curvature="0"
     style="fill:#a17ab3;fill-opacity:1" /><g
     id="g4260"
     transform="translate(-378.33113,-140.98882)"
     style="fill:#31a463;fill-opacity:1"><path
       sodipodi:nodetypes="sccss"
       inkscape:connector-curvature="0"
       id="rect3440"
       d="m 723.44187,810.56944 c -56.17277,0 -88.26323,61.8905 -88.26323,138.7721 -0.11658,52.73816 237.89695,52.73816 236.59523,0 0,-76.8816 -32.10329,-138.7721 -88.27608,-138.7721 z"
       style="opacity:1;fill:#31a463;fill-opacity:1;stroke:none;stroke-width:8.9847374;stroke-linecap:round;stroke-linejoin:round;stroke-miterlimit:4;stroke-dasharray:none;stroke-opacity:1" /><path
       sodipodi:nodetypes="ccccccccc"
       style="fill:#31a463;fill-opacity:1;stroke:none;stroke-width:4.4923687;stroke-linecap:round;stroke-linejoin:round;stroke-miterlimit:4;stroke-dasharray:none"
       inkscape:connector-curvature="0"
       id="path49"
       d="m 657.17674,667.40144 c -1.27756,18.7002 -3.83268,36.2315 5.11023,52.594 14.46118,-33.3065 14.67271,-40.0496 27.5579,-41.1125 49.38356,9.1715 81.31297,-6.2657 123.19401,-26.6752 14.05314,31.5564 17.88582,28.05 24.2736,73.6315 l 12.7756,-16.3625 c 0,-26.8814 6.38779,-58.4378 -12.7756,-79.4753 -6.38778,-8.1814 -47.26966,-31.5563 -60.04524,-35.0627 -61.32281,-16.3624 -112.42515,26.8813 -120.0905,72.4627 z"
       class="fil6" /><path
       inkscape:connector-curvature="0"
       id="path4198"
       d="m 810.9474,658.20714 c -39.77172,19.32886 -72.63722,33.99788 -121.13603,25.21692 -2.53358,0.24762 -4.08499,0.69263 -5.2645,1.439 -1.25299,0.79272 -2.46673,2.09398 -4.00101,4.73801 -2.62359,4.5213 -6.23016,13.55653 -11.63454,26.26984 a 85.408615,85.408615 0 0 0 84.56533,74.51016 85.408615,85.408615 0 0 0 81.56458,-60.66459 4.4928179,4.4928179 0 0 1 -2.17601,-3.24636 c -5.98968,-42.74076 -9.61592,-41.78981 -21.91782,-68.26298 z"
       style="opacity:1;fill:#31a463;fill-opacity:1;stroke:none;stroke-width:1;stroke-linecap:round;stroke-linejoin:round;stroke-miterlimit:4;stroke-dasharray:none;stroke-opacity:1" /></g><g
     id="g4255"
     transform="translate(-378.33758,-202.16606)"
     style="fill:#003399;fill-opacity:1"><path
       id="circle4173"
       d="m 1007.8921,620.47304 a 85.408615,85.408615 0 0 0 -85.4076,85.4077 85.408615,85.408615 0 0 0 3.9659,25.3924 c -0.7349,-13.7623 4.4879,-28.8153 11.2485,-42.3266 9.0741,-18.135 20.8647,-33.4251 29.06,-39.7293 a 4.4928179,4.4928179 0 0 1 6.4227,0.9826 c 16.4207,23.3685 34.281,25.6903 52.2589,28.5161 8.9889,1.4127 17.9843,2.7889 26.2171,7.2825 8.229,4.4917 15.3175,12.2308 20.0928,24.9362 5.7874,14.9703 6.0802,27.3685 3.229,37.9044 -2.0142,7.4428 -5.5025,13.8677 -9.3533,19.8646 a 85.408615,85.408615 0 0 0 27.6912,-62.8229 85.408615,85.408615 0 0 0 -85.4252,-85.4077 z m -38.8168,38.9397 c -6.29,6.2752 -16.0774,19.0392 -23.3393,33.5524 -8.5329,17.0533 -13.2649,35.9754 -8.002,48.3456 a 4.4928179,4.4928179 0 0 1 0.018,0.054 c 8.313,20.2502 18.4889,29.5885 27.1121,38.1852 a 85.408615,85.408615 0 0 0 43.0285,11.7398 85.408615,85.408615 0 0 0 37.606,-8.7918 c 2.5428,-4.0376 5.2418,-7.8828 7.8441,-11.6169 5.575,-8 10.5819,-15.6392 12.9507,-24.3922 2.3687,-8.7531 2.319,-18.7579 -2.9306,-32.324 a 4.4928179,4.4928179 0 0 1 -0.018,-0.054 c -4.2007,-11.1857 -9.5468,-16.7183 -15.9865,-20.2332 -6.4397,-3.515 -14.3584,-4.8735 -23.3217,-6.2823 -16.8807,-2.6533 -37.4928,-6.2849 -54.9613,-28.1826 z"
       style="opacity:1;fill:#003399;fill-opacity:1;stroke:none;stroke-width:1;stroke-linecap:round;stroke-linejoin:round;stroke-miterlimit:4;stroke-dasharray:none;stroke-opacity:1"
       inkscape:connector-curvature="0" /><path
       style="fill:#003399;fill-opacity:1;stroke:none;stroke-width:4.4923687;stroke-linecap:round;stroke-linejoin:round;stroke-miterlimit:4;stroke-dasharray:none"
       inkscape:connector-curvature="0"
       id="path43"
       d="m 969.5038,834.71174 c 19.3332,-51.7866 -15.1904,-39.8359 -35.9045,-90.2947 -12.4285,-29.2129 22.0951,-79.6717 35.9045,-90.2946 34.5236,49.1309 80.0947,11.9507 98.047,59.7538 22.0951,57.0981 -41.4283,65.0653 -26.2379,120.8355 8.2856,5.3115 22.0951,23.9016 30.3807,7.9672 2.7619,-6.6393 -5.5237,-29.213 -4.1428,-42.4916 2.7619,-31.8687 24.857,-46.4752 37.2855,-71.7046 28.9998,-59.7538 -22.0951,-123.4913 -69.0472,-134.1142 -85.6185,-21.2458 -175.37985,75.6882 -111.8564,164.655 37.2854,51.7867 11.0475,43.8195 17.9522,86.3111 l 6.9047,0 c 1.381,0 2.7619,0 4.1429,0 l 16.5713,-10.6229 z"
       class="fil6" /><path
       style="opacity:1;fill:#003399;fill-opacity:1;stroke:none;stroke-width:8.9847374;stroke-linecap:round;stroke-linejoin:round;stroke-miterlimit:4;stroke-dasharray:none;stroke-opacity:1"
       d="m 977.8634,810.56944 c -56.1728,0 -88.2633,61.8905 -88.2633,138.7721 -0.1165,52.73816 237.897,52.73816 236.5953,0 0,-76.8816 -32.1033,-138.7721 -88.2761,-138.7721 z"
       id="path4171"
       inkscape:connector-curvature="0"
       sodipodi:nodetypes="sccss" /></g><g
     id="g4249"
     transform="translate(-498.27308,-792.32493)"
     style="fill:#e92a6f;fill-opacity:1"><path
       id="path4243"
       d="m 655.2164,1255.6697 c -22.61023,9.2339 -39.23248,10.2707 -51.50431,14.5651 -12.70931,4.4476 -21.84873,11.7452 -32.51702,37.3253 l -3.47457,8.3705 -4.54501,-7.8441 c -0.93716,-1.6195 -1.39255,-2.1655 -1.22839,-1.9829 -0.10588,-0.1013 -0.28057,-0.263 -0.28077,-0.2633 -5e-4,-5e-4 -0.44159,-0.5412 -0.59665,-0.8247 -0.15503,-0.2836 -0.25901,-0.5576 -0.33341,-0.7897 -0.14877,-0.4642 -0.17494,-0.7698 -0.19303,-0.9652 -0.0362,-0.3905 -0.0351,-0.4277 -0.0351,-0.4386 0,-0.089 0.0805,0.3975 -0.14037,-0.6142 -0.21778,-0.9974 -0.72318,-2.9789 -1.7022,-6.3701 -0.22973,-0.5081 -0.37171,-0.944 -0.54399,-1.3863 l -11.5468,18.9346 c -3.28156,8.8258 -0.62453,17.8112 5.35224,28.0773 4.73991,8.1416 11.45991,16.7812 18.05722,25.6732 13.93583,9.8312 30.84877,15.6222 49.01244,15.6531 12.04583,-0.026 23.62377,-2.5939 34.16657,-7.2299 7.6415,-11.1255 17.03254,-21.7562 24.30442,-32.517 7.26451,-10.7499 12.27456,-21.4231 12.10834,-32.6575 -0.24149,-1.6782 -0.52874,-2.1498 -0.59664,-2.2988 -1.20346,0.4876 -4.30682,2.7076 -6.73855,5.1592 l -8.9321,9.0199 1.28103,-12.6348 c 3.20271,-31.5245 -6.85966,-45.3289 -19.37334,-53.9611 z"
       style="opacity:1;fill:#e92a6f;fill-opacity:1;stroke:none;stroke-width:1;stroke-linecap:round;stroke-linejoin:round;stroke-miterlimit:4;stroke-dasharray:none;stroke-opacity:1"
       inkscape:connector-curvature="0" /><path
       sodipodi:nodetypes="ccccccccccccccc"
       style="fill:#e92a6f;fill-opacity:1"
       inkscape:connector-curvature="0"
       id="path41"
       d="m 703.64102,1464.4461 c -2.73167,1.4162 0,12.7458 -35.5117,-14.162 -66.03483,-55.8535 27.00775,-89.4198 25.95086,-140.2039 -1.34088,-11.8626 -9.50429,-5.5651 -15.02418,0 3.48038,-34.2574 -8.8593,-50.2833 -23.21919,-59.4804 -46.43837,19.8268 -66.92588,2.8324 -88.77924,55.2318 -4.0975,-7.081 0,2.8324 -4.0975,-11.3296 -1.36583,-2.8324 -1.36583,-4.2486 -4.0975,-9.9134 l -16.39001,26.9078 c -16.39002,42.4861 86.04756,86.3883 24.58501,137.3715 -9.56084,8.4972 -27.31668,19.8268 -36.87752,18.4106 20.48751,-99.134 4.0975,-80.7234 -6.82918,-168.5279 -6.60696,-111.8705 100.31098,-148.1483 166.6318,-89.2206 17.75585,14.162 27.31669,43.9022 23.21919,77.891 -8.19501,66.5615 -36.87753,76.4749 -9.56084,177.0251 z"
       class="fil6" /><path
       style="opacity:1;fill:#e92a6f;fill-opacity:1;stroke:none;stroke-width:8.9847374;stroke-linecap:round;stroke-linejoin:round;stroke-miterlimit:4;stroke-dasharray:none;stroke-opacity:1"
       d="m 588.96874,1402.9781 c -56.17277,0 -88.26323,61.8905 -88.26323,138.7721 -0.11658,52.7382 237.89695,52.7382 236.59523,0 0,-76.8816 -32.10329,-138.7721 -88.27608,-138.7721 z"
       id="path4227"
       inkscape:connector-curvature="0"
       sodipodi:nodetypes="sccss" /><path
       id="path4241"
       d="m 563.22813,1306.9634 c 0.0186,0.01 0.0161,0.025 0.0351,0.035 0.19217,0.082 0.39605,0.1523 0.26323,0.1053 -0.0347,-0.012 -0.20062,-0.1003 -0.29832,-0.1404 z"
       style="opacity:1;fill:#e92a6f;fill-opacity:1;stroke:none;stroke-width:1;stroke-linecap:round;stroke-linejoin:round;stroke-miterlimit:4;stroke-dasharray:none;stroke-opacity:1"
       inkscape:connector-curvature="0" /></g></svg>