<?xml version="1.0" encoding="UTF-8" standalone="no"?>
<!-- Creator: CorelDRAW X8 -->

<svg
   xmlns:dc="http://purl.org/dc/elements/1.1/"
   xmlns:cc="http://creativecommons.org/ns#"
   xmlns:rdf="http://www.w3.org/1999/02/22-rdf-syntax-ns#"
   xmlns:svg="http://www.w3.org/2000/svg"
   xmlns="http://www.w3.org/2000/svg"
   xmlns:sodipodi="http://sodipodi.sourceforge.net/DTD/sodipodi-0.dtd"
   xmlns:inkscape="http://www.inkscape.org/namespaces/inkscape"
   xml:space="preserve"
   width="39.747345mm"
   height="26.623003mm"
   version="1.1"
   style="clip-rule:evenodd;fill-rule:evenodd;image-rendering:optimizeQuality;shape-rendering:geometricPrecision;text-rendering:geometricPrecision"
   viewBox="0 0 4027.0799 2697.3288"
   id="svg2"
   inkscape:version="0.91 r13725"
   sodipodi:docname="voluntarios.svg"><metadata
     id="metadata27"><rdf:RDF><cc:Work
         rdf:about=""><dc:format>image/svg+xml</dc:format><dc:type
           rdf:resource="http://purl.org/dc/dcmitype/StillImage" /><dc:title></dc:title></cc:Work></rdf:RDF></metadata><sodipodi:namedview
     pagecolor="#ffffff"
     bordercolor="#666666"
     borderopacity="1"
     objecttolerance="10"
     gridtolerance="10"
     guidetolerance="10"
     inkscape:pageopacity="0"
     inkscape:pageshadow="2"
     inkscape:window-width="1366"
     inkscape:window-height="705"
     id="namedview25"
     showgrid="false"
     fit-margin-top="0"
     fit-margin-left="0"
     fit-margin-right="0"
     fit-margin-bottom="0"
     inkscape:zoom="2.7219688"
     inkscape:cx="-24.570005"
     inkscape:cy="62.246974"
     inkscape:window-x="1280"
     inkscape:window-y="285"
     inkscape:window-maximized="1"
     inkscape:current-layer="svg2" /><defs
     id="defs4"><style
       type="text/css"
       id="style6"><![CDATA[
    .fil0 {fill:#E92A6F}
   ]]></style><clipPath
       id="id0"><path
         d="m 0,0 4836,0 0,3506 L 0,3506 0,0 Z"
         id="path9"
         inkscape:connector-curvature="0" /></clipPath></defs><g
     id="g4173"
     transform="translate(-404.38995,-404.44967)"><path
       style="fill:#e92a6f"
       inkscape:connector-curvature="0"
       d="m 2770,2994 c 28,-169 -21,-910 21,-980 l 35,0 c 36,56 22,818 15,945 7,190 282,190 289,-14 14,-275 -21,-1700 0,-1750 49,-42 106,-84 169,-106 l -120,92 c 99,85 78,113 106,332 70,501 63,303 63,825 0,141 0,289 0,437 0,142 -21,290 120,318 184,35 177,-169 177,-247 0,-134 -14,-818 7,-882 l 49,-7 c 35,42 176,656 212,762 21,106 42,303 127,353 127,84 254,-28 211,-198 -70,-268 -127,-522 -197,-783 -35,-141 -64,-247 -92,-395 -14,-99 -63,-346 -56,-430 l 134,148 c 247,310 169,571 338,522 134,-42 -21,-339 -63,-423 -71,-141 -155,-240 -240,-339 -56,14 -78,42 -141,14 -42,-21 -92,-63 -113,-84 56,14 113,70 155,77 71,7 127,-56 92,-134 -21,-49 -233,-169 -317,-162 -57,85 -106,162 -247,176 -134,14 -219,-63 -275,-141 -85,35 -113,-21 -205,-49 -254,204 -381,7 -437,0 -50,-7 -127,49 -163,49 -42,0 -105,-42 -155,-49 -56,-7 -85,42 -134,70 -141,57 -233,-7 -324,-70 -106,28 -120,84 -205,49 -183,247 -458,141 -522,-42 -85,7 -289,113 -317,162 -36,71 14,141 84,141 57,-7 99,-63 162,-77 -14,21 -77,63 -112,84 -57,28 -92,0 -141,-14 -85,92 -170,191 -240,332 -36,70 -184,359 -78,423 141,78 141,-134 233,-318 49,-98 169,-289 254,-331 -28,374 -247,1227 -353,1601 -42,163 92,268 219,191 63,-36 56,-85 77,-163 22,-63 36,-127 50,-190 28,-99 176,-727 211,-762 71,0 57,-14 57,162 0,71 0,141 0,219 0,78 -7,607 7,656 35,113 204,148 268,28 28,-56 14,-155 14,-211 l 7,-889 c 14,-155 64,-416 85,-586 21,-120 14,-84 77,-155 -35,-35 -70,-63 -113,-92 64,22 142,64 163,113 0,544 -7,1101 0,1644 7,127 7,254 148,254 148,0 148,-127 148,-268 0,-106 -7,-776 14,-818 l 35,0 c 22,42 7,677 7,783 0,134 -14,275 113,296 64,21 120,-7 148,-42 36,-43 29,-99 29,-170 l 7,-1622 c 35,-28 35,-21 56,-50 28,-28 35,-42 71,-28 35,21 14,1030 14,1143 0,190 0,388 0,578 0,290 275,212 282,92 l 0,0 z"
       class="fil0"
       id="path13" /><path
       style="fill:#e92a6f"
       inkscape:connector-curvature="0"
       d="m 3073,687 0,-14 c 0,-352 -508,-352 -529,-21 -28,360 529,374 529,35 z"
       class="fil0"
       id="path15" /><path
       style="fill:#e92a6f"
       inkscape:connector-curvature="0"
       d="m 3405,518 c -339,120 -184,593 141,515 127,-28 240,-162 190,-331 -28,-120 -176,-240 -331,-184 z"
       class="fil0"
       id="path17" /><path
       style="fill:#e92a6f"
       inkscape:connector-curvature="0"
       d="m 1282,518 c -353,113 -184,614 148,515 70,-21 120,-63 148,-120 120,-197 -57,-473 -296,-395 z"
       class="fil0"
       id="path19" /><path
       style="fill:#e92a6f"
       inkscape:connector-curvature="0"
       d="m 1945,419 c -353,113 -156,621 162,508 331,-120 169,-613 -162,-508 z"
       class="fil0"
       id="path21" /><path
       style="fill:#e92a6f"
       inkscape:connector-curvature="0"
       d="m 2770,2994 c 42,-28 21,-409 21,-472 0,-170 0,-332 0,-501 l 35,0 0,705 c 0,42 -7,85 -7,120 7,28 7,85 22,113 7,-127 21,-889 -15,-945 l -35,0 c -42,70 7,811 -21,980 z"
       class="fil0"
       id="path23" /></g></svg>