<?xml version="1.0" encoding="UTF-8" standalone="no"?>
<svg
   xmlns:dc="http://purl.org/dc/elements/1.1/"
   xmlns:cc="http://creativecommons.org/ns#"
   xmlns:rdf="http://www.w3.org/1999/02/22-rdf-syntax-ns#"
   xmlns:svg="http://www.w3.org/2000/svg"
   xmlns="http://www.w3.org/2000/svg"
   xmlns:sodipodi="http://sodipodi.sourceforge.net/DTD/sodipodi-0.dtd"
   xmlns:inkscape="http://www.inkscape.org/namespaces/inkscape"
   width="279.4mm"
   height="140mm"
   viewBox="0 0 279.4 140"
   shape-rendering="geometricPrecision"
   text-rendering="geometricPrecision"
   image-rendering="optimizeQuality"
   fill-rule="evenodd"
   clip-rule="evenodd"
   version="1.1"
   id="svg58"
   sodipodi:docname="logo-white.svg"
   inkscape:version="0.92.3 (2405546, 2018-03-11)">
  <metadata
     id="metadata62">
    <rdf:RDF>
      <cc:Work
         rdf:about="">
        <dc:format>image/svg+xml</dc:format>
        <dc:type
           rdf:resource="http://purl.org/dc/dcmitype/StillImage" />
        <dc:title></dc:title>
      </cc:Work>
    </rdf:RDF>
  </metadata>
  <sodipodi:namedview
     pagecolor="#ffffff"
     bordercolor="#666666"
     borderopacity="1"
     objecttolerance="10"
     gridtolerance="10"
     guidetolerance="10"
     inkscape:pageopacity="0"
     inkscape:pageshadow="2"
     inkscape:window-width="1366"
     inkscape:window-height="706"
     id="namedview60"
     showgrid="false"
     inkscape:zoom="1.0186458"
     inkscape:cx="527.99999"
     inkscape:cy="264.56693"
     inkscape:window-x="-8"
     inkscape:window-y="-8"
     inkscape:window-maximized="1"
     inkscape:current-layer="svg58" />
  <defs
     id="defs39">
    <style
       id="style37"><![CDATA[
    .str0 {stroke:#1F1A17;stroke-width:0.3817;stroke-linecap:round;stroke-linejoin:round}
    .fil1 {fill:#1F1A17}
    .fil0 {fill:#31A463}
    .fil2 {fill:#1F1A17;fill-rule:nonzero}
   ]]></style>
  </defs>
  <path
     style="fill:#ffffff"
     inkscape:connector-curvature="0"
     id="path41"
     d="m 135.305,3.746 c 4.255,0 10.727,-0.534 14.434,0.814 0.584,0.254 0.717,1.247 0.074,1.51 -1.213,0.71 -2.69,0.685 -4.053,0.7 -1.28,-0.066 -2.546,0.213 -3.826,0.18 -0.894,-0.01 -1.79,-0.056 -2.68,0.052 -1.595,0.255 -3.214,0.04 -4.81,0.274 -1.817,-0.008 -3.605,0.36 -5.42,0.41 -1.867,0.1 -3.713,0.43 -5.576,0.553 -1.667,-0.01 -3.27,0.536 -4.932,0.595 -2.604,0.324 -5.204,0.69 -7.79,1.132 -2.07,0.507 -4.207,0.652 -6.265,1.2 -3.317,0.502 -6.542,1.45 -9.83,2.09 -1.335,0.245 -2.6,0.774 -3.946,0.97 -2.51,0.588 -4.997,1.286 -7.466,2.03 -1.628,0.262 -3.132,0.95 -4.72,1.362 -4.332,1.354 -8.658,2.73 -12.94,4.24 -1.604,0.482 -3.11,1.236 -4.73,1.67 -2.39,0.833 -4.778,1.666 -7.115,2.637 -1.858,0.86 -3.805,1.524 -5.604,2.51 -0.876,0.49 -1.853,0.76 -2.71,1.284 -0.924,0.57 -1.92,1.013 -2.855,1.563 -3.005,1.606 -5.84,3.508 -8.647,5.433 -0.97,0.652 -1.843,1.436 -2.783,2.128 -1.21,0.9 -2.305,1.94 -3.465,2.9 -0.936,0.76 -1.752,1.652 -2.608,2.5 -0.864,0.89 -1.793,1.72 -2.577,2.686 -2.908,3.245 -5.587,6.742 -7.53,10.658 -1.05,1.835 -1.6,3.888 -2.267,5.877 -0.274,0.84 -0.366,1.722 -0.567,2.58 -0.428,1.7 -0.146,3.467 -0.237,5.2 -0.1,1.36 0.29,2.675 0.536,3.998 1.255,5.608 4.462,10.565 8.247,14.81 1.505,1.52 3.007,3.043 4.54,4.533 2.176,1.883 4.382,3.738 6.726,5.407 2.1,1.447 4.347,2.665 6.542,3.96 2.7,1.56 5.483,2.968 8.286,4.333 2.442,1.296 4.97,2.42 7.51,3.503 1.102,0.578 2.31,0.906 3.427,1.448 1.71,0.73 3.44,1.41 5.207,1.997 1.153,0.467 2.307,0.928 3.496,1.298 4.327,1.595 8.803,2.717 13.247,3.935 2.088,0.508 4.138,1.175 6.253,1.573 3.194,0.88 6.46,1.463 9.687,2.212 2.506,0.432 4.965,1.12 7.49,1.462 1.175,0.114 2.305,0.505 3.488,0.58 1.136,0.075 2.215,0.495 3.353,0.553 1.288,0.08 2.544,0.413 3.83,0.527 0.652,0.06 1.303,0.155 1.95,0.27 1.634,0.31 3.31,0.293 4.942,0.623 1.07,0.23 2.168,0.21 3.255,0.29 2.047,0.303 4.116,0.41 6.175,0.6 1.12,0.12 2.25,-0.012 3.365,0.165 1.466,0.23 2.96,-0.025 4.428,0.204 1.74,0.107 3.47,0.308 5.215,0.28 2.902,0.337 5.832,0.036 8.742,0.198 1.534,0.26 3.093,0.134 4.64,0.158 4.356,0 8.713,0.003 13.07,0 1.008,0.002 2.025,0.058 3.027,-0.1 0.896,-0.148 1.806,-0.1 2.713,-0.093 0.905,0.007 1.798,-0.182 2.705,-0.182 0.994,-0.012 1.995,0.065 2.988,-0.07 1.1,-0.158 2.216,-0.055 3.316,-0.205 0.764,-0.105 1.537,-0.092 2.308,-0.092 1.177,0.01 2.323,-0.315 3.497,-0.348 1.655,-0.035 3.29,-0.348 4.945,-0.387 1.074,-0.015 2.123,-0.27 3.19,-0.35 1.885,-0.06 3.73,-0.49 5.594,-0.726 1.665,-0.12 3.288,-0.537 4.94,-0.75 2.09,-0.477 4.233,-0.654 6.314,-1.17 2.858,-0.458 5.665,-1.18 8.488,-1.82 2.018,-0.33 3.973,-0.95 5.977,-1.35 2.125,-0.404 4.22,-0.946 6.337,-1.37 1.126,-0.346 2.31,-0.432 3.43,-0.81 0.91,-0.29 1.876,-0.317 2.788,-0.607 0.805,-0.22 1.637,-0.52 2.485,-0.38 0.255,0.055 0.513,0.175 0.673,0.395 0.13,0.41 -0.086,0.875 -0.413,1.134 -1.45,1.11 -3.196,1.7 -4.82,2.498 -1.682,0.585 -3.338,1.245 -5.018,1.835 -2.566,0.803 -5.16,1.51 -7.767,2.174 -1.31,0.46 -2.69,0.652 -4.015,1.05 -1.83,0.496 -3.664,0.98 -5.52,1.362 -0.985,0.183 -1.917,0.563 -2.904,0.72 -0.954,0.144 -1.877,0.426 -2.828,0.563 -0.662,0.097 -1.325,0.193 -1.972,0.354 -1.08,0.265 -2.195,0.324 -3.274,0.585 -1.058,0.24 -2.15,0.27 -3.208,0.503 -2.535,0.643 -5.17,0.702 -7.724,1.246 -1.154,0.258 -2.348,0.15 -3.502,0.384 -1.37,0.305 -2.785,0.263 -4.167,0.497 -2.136,0.373 -4.32,0.306 -6.457,0.683 -1.192,0.224 -2.41,0.082 -3.61,0.226 -1.034,0.118 -2.067,0.255 -3.106,0.28 -0.41,-0.008 -0.797,0.13 -1.17,0.275 h -29.056 c -0.373,-0.142 -0.75,-0.3 -1.154,-0.284 -1.257,-0.003 -2.52,0.098 -3.772,-0.07 -1.903,-0.242 -3.83,0.07 -5.73,-0.186 -1.86,-0.247 -3.743,0.04 -5.605,-0.166 -0.907,-0.116 -1.82,-0.072 -2.73,-0.156 -1.33,-0.174 -2.673,-0.153 -4.006,-0.292 -1.288,0.026 -2.554,-0.244 -3.84,-0.23 -1.2,0 -2.358,-0.358 -3.547,-0.465 -1.386,-0.134 -2.76,-0.37 -4.136,-0.587 -1.66,-0.156 -3.293,-0.515 -4.95,-0.695 -1.024,-0.11 -1.99,-0.5 -3.013,-0.612 -0.806,-0.092 -1.615,-0.177 -2.407,-0.352 -0.996,-0.23 -2.026,-0.266 -3.012,-0.54 -1.25,-0.356 -2.55,-0.47 -3.82,-0.72 -1.663,-0.197 -3.254,-0.74 -4.905,-1.002 -1.4,-0.4 -2.86,-0.53 -4.253,-0.96 -1.658,-0.366 -3.326,-0.682 -4.963,-1.128 -1.683,-0.48 -3.422,-0.743 -5.083,-1.294 -1.384,-0.446 -2.835,-0.638 -4.218,-1.086 -1.873,-0.542 -3.77,-1.015 -5.596,-1.71 -2.01,-0.714 -4.06,-1.315 -6.045,-2.1 -13.43,-5.096 -26.38,-11.658 -37.945,-20.223 -0.77,-0.61 -1.433,-1.34 -2.13,-2.028 -1.188,-1.203 -2.404,-2.378 -3.582,-3.59 -1.194,-1.357 -2.35,-2.745 -3.478,-4.158 C 8.833,89.319 7.181,86.694 5.791,83.937 5.288,82.864 4.717,81.812 4.411,80.66 3.791,78.92 3.326,77.12 3.093,75.287 c -0.12,-1.318 -0.02,-2.643 -0.05,-3.963 -0.036,-1.637 0.01,-3.29 0.41,-4.887 0.208,-0.814 0.3,-1.65 0.48,-2.47 0.37,-1.577 0.893,-3.115 1.186,-4.71 0.36,-1.49 0.77,-2.982 1.482,-4.347 1.194,-2.717 2.79,-5.23 4.484,-7.66 1.586,-2.153 3.22,-4.29 5.172,-6.132 1.432,-1.382 2.755,-2.885 4.305,-4.143 3.242,-2.82 6.683,-5.41 10.316,-7.703 3.785,-2.366 7.59,-4.758 11.745,-6.43 1.503,-0.75 3.112,-1.24 4.654,-1.897 3.106,-1.336 6.328,-2.38 9.49,-3.573 1.914,-0.836 3.99,-1.204 5.918,-1.994 1.04,-0.375 2.13,-0.59 3.164,-0.977 1.418,-0.52 2.942,-0.675 4.343,-1.247 1.067,-0.433 2.232,-0.504 3.32,-0.87 0.91,-0.303 1.84,-0.542 2.782,-0.705 0.968,-0.16 1.886,-0.517 2.83,-0.767 2.65,-0.56 5.31,-1.057 7.936,-1.715 2.744,-0.473 5.48,-0.982 8.216,-1.5 1.495,-0.09 2.922,-0.628 4.422,-0.67 1.4,-0.052 2.75,-0.48 4.15,-0.533 1.618,-0.098 3.22,-0.356 4.81,-0.67 2.014,-0.19 4.035,-0.31 6.043,-0.554 4.21,-0.66 16.118,-1.312 20.605,-1.424 z"
     class="fil0" />
  <g
     id="__x0023_131516ff"
     style="fill:#ffffff">
    <path
       style="fill:#ffffff"
       inkscape:connector-curvature="0"
       d="m 269.87,53.69 c 0.846,-0.087 1.71,-0.095 2.56,-0.02 0.664,0.215 1.313,0.534 1.884,0.942 0.583,0.586 1.28,1.122 1.594,1.917 0.51,1.062 0.468,2.274 0.452,3.424 0.007,1.134 -0.688,2.128 -1.43,2.924 -1.03,0.89 -2.31,1.743 -3.734,1.61 -1.144,-0.064 -2.325,-0.264 -3.272,-0.955 -2.364,-1.513 -3.138,-4.996 -1.605,-7.348 0.87,-1.178 2.03,-2.302 3.55,-2.495 m 0.148,1.11 c -0.948,0.208 -1.87,0.714 -2.438,1.52 -0.648,0.952 -1.078,2.135 -0.933,3.296 0.24,0.903 0.606,1.818 1.32,2.457 1.473,1.704 4.417,1.745 5.99,0.15 0.983,-0.818 1.465,-2.135 1.336,-3.4 0.063,-1.436 -0.756,-2.836 -2.01,-3.524 -0.952,-0.65 -2.168,-0.664 -3.265,-0.5 z"
       class="fil1"
       id="_179250136" />
    <path
       style="fill:#ffffff"
       inkscape:connector-curvature="0"
       d="m 39.153,54.932 c 2.296,-0.437 4.668,-0.806 7.002,-0.432 1.713,0.04 3.412,0.42 5.006,1.046 1.225,0.274 2.25,1.02 3.28,1.69 0.567,0.385 1.065,0.855 1.6,1.278 0.595,0.462 0.98,1.125 1.51,1.652 0.486,0.49 0.765,1.154 1.305,1.594 0.916,-1.222 1.916,-2.398 3.12,-3.348 1.242,-0.84 2.514,-1.676 3.946,-2.157 0.683,-0.212 1.33,-0.548 2.047,-0.63 1.073,-0.142 2.104,-0.56 3.198,-0.532 1.276,0.013 2.553,0 3.83,0.005 1.19,-0.002 2.32,0.424 3.487,0.59 0.89,0.146 1.648,0.667 2.482,0.98 1.6,0.61 2.963,1.685 4.252,2.783 2.243,2.133 3.684,5.01 4.374,8 0.067,1.013 0.29,2.006 0.378,3.013 0.04,2.815 -0.035,5.635 0.032,8.45 0.293,1.525 0.118,3.082 0.167,4.625 0.04,1.178 -0.05,2.368 -0.37,3.506 -0.27,0.86 -1.214,1.276 -2.05,1.35 -0.85,0.106 -1.665,-0.294 -2.336,-0.774 -0.756,-0.917 -0.59,-2.18 -0.594,-3.285 0.042,-1.543 -0.12,-3.097 0.155,-4.626 0.068,-1.698 -0.002,-3.4 0.033,-5.098 0.04,-0.966 -0.262,-1.906 -0.187,-2.872 0.075,-0.914 -0.208,-1.79 -0.42,-2.662 -0.418,-2.976 -2.18,-5.83 -4.85,-7.29 -0.758,-0.46 -1.62,-0.695 -2.425,-1.056 -1.76,-0.578 -3.64,-0.526 -5.468,-0.457 -0.913,0.137 -1.855,0.172 -2.727,0.504 -1.033,0.42 -2.145,0.687 -3.057,1.358 -0.63,0.472 -1.353,0.866 -1.814,1.524 -0.516,0.727 -1.093,1.43 -1.407,2.278 -0.252,0.683 -0.57,1.342 -0.764,2.046 -0.322,1.553 -0.47,3.132 -0.64,4.707 -0.01,4.2 0,8.403 -0.002,12.603 -0.017,0.66 -0.098,1.324 -0.26,1.965 -0.625,0.92 -1.837,1.22 -2.893,1.136 -0.523,0.01 -0.97,-0.31 -1.317,-0.67 -0.348,-0.356 -0.733,-0.777 -0.693,-1.314 0.003,-4.412 0.003,-8.823 0,-13.235 -0.008,-0.977 0.067,-1.963 -0.11,-2.93 -0.152,-1.233 -0.25,-2.497 -0.73,-3.656 -0.652,-1.384 -1.422,-2.735 -2.488,-3.846 -0.626,-0.5 -1.195,-1.07 -1.877,-1.494 -0.71,-0.457 -1.526,-0.704 -2.29,-1.05 -0.715,-0.34 -1.51,-0.407 -2.282,-0.517 -3.05,-0.546 -6.237,0.192 -8.904,1.72 -1.995,1.065 -3.376,3.032 -4.082,5.145 -0.258,1.202 -0.872,2.34 -0.818,3.596 0.06,1.03 -0.4,2 -0.37,3.03 0.01,1.543 0.007,3.086 0,4.63 -0.01,0.75 0.22,1.476 0.198,2.227 -0.014,2.075 -0.003,4.15 -0.003,6.224 0.022,1.245 -1.223,2.273 -2.434,2.152 -0.888,0.065 -1.856,-0.303 -2.35,-1.065 -0.29,-0.525 -0.395,-1.132 -0.384,-1.727 0.022,-4.466 -0.01,-8.932 0.016,-13.398 0.123,-0.89 0.174,-1.787 0.215,-2.686 0.273,-1.507 0.2,-3.093 0.85,-4.51 0.68,-2.96 2.72,-5.42 5.095,-7.22 1.765,-1.277 3.732,-2.264 5.825,-2.868 z"
       class="fil1"
       id="_179250064" />
    <path
       style="fill:#ffffff"
       inkscape:connector-curvature="0"
       d="m 222.91,55.796 c 0.622,-0.725 1.69,-0.53 2.538,-0.497 1.012,0.137 1.387,1.242 1.546,2.11 0.077,1.37 -0.03,2.747 0.042,4.118 0.962,0.04 1.927,-0.01 2.89,0.01 0.686,0 1.365,0.367 1.775,0.914 0.34,0.784 0.43,1.722 0.028,2.503 -0.237,0.75 -1.047,1.185 -1.8,1.177 -0.965,0.015 -1.93,-0.035 -2.894,0.016 -0.043,5.636 -0.008,11.274 -0.016,16.912 0.008,1.06 0.105,2.274 -0.645,3.133 -0.573,0.77 -1.64,0.794 -2.508,0.722 -1.007,-0.126 -1.544,-1.187 -1.635,-2.096 -0.003,-6.16 0,-12.322 0,-18.482 -1.248,-0.078 -2.725,0.218 -3.738,-0.7 -0.73,-0.586 -0.78,-1.618 -0.642,-2.472 0.11,-0.484 0.253,-1.06 0.763,-1.273 1.123,-0.563 2.412,-0.278 3.615,-0.372 0.015,-1.27 -0.01,-2.54 -0.004,-3.81 -0.013,-0.695 0.312,-1.347 0.685,-1.914 z"
       class="fil1"
       id="_179249992" />
    <path
       style="fill:#ffffff"
       inkscape:connector-curvature="0"
       d="m 136.574,57.87 c -0.01,-0.874 0.41,-1.832 1.25,-2.19 0.865,-0.125 1.758,-0.004 2.594,0.234 0.493,0.37 0.815,1.012 0.773,1.637 -0.018,4.2 0.003,8.4 -0.01,12.598 -0.017,0.55 0,1.104 0.06,1.654 2.194,0.092 4.395,0.01 6.593,0.038 1.887,0.08 3.802,-0.223 5.558,-0.926 0.873,-0.325 1.48,-1.057 2.115,-1.702 0.57,-0.574 0.865,-1.35 1.114,-2.104 0.257,-0.944 0.69,-1.838 0.828,-2.815 0.177,-0.93 0.452,-1.967 1.294,-2.517 0.744,-0.142 1.6,-0.138 2.227,0.353 0.397,0.322 0.86,0.67 0.993,1.192 0.177,1.545 -0.102,3.097 -0.438,4.6 -0.475,1.142 -0.795,2.367 -1.517,3.39 -0.7,1.08 -1.73,1.873 -2.597,2.81 0.57,0.654 1.09,1.352 1.734,1.94 1.922,1.966 2.93,4.738 2.86,7.476 -0.036,0.915 0.14,1.895 -0.304,2.74 -0.403,0.708 -1.173,1.343 -2.037,1.18 -0.642,-0.18 -1.25,-0.498 -1.787,-0.893 -0.6,-0.748 -0.42,-1.768 -0.546,-2.654 -0.278,-1.424 -0.505,-2.9 -1.234,-4.182 -0.99,-1.772 -2.995,-2.733 -4.927,-3.068 -1.016,0.008 -2.003,-0.285 -3.018,-0.236 -1.758,0.02 -3.514,-0.003 -5.27,0.007 -0.58,-0.004 -1.136,0.16 -1.695,0.28 0,0.95 -0.03,1.9 0.008,2.85 0.27,1.896 0.23,3.833 -0.005,5.73 0.048,1.104 -1.02,2.137 -2.12,2.022 -0.728,0.015 -1.637,-0.105 -2.002,-0.832 -0.61,-0.92 -0.5,-2.056 -0.492,-3.103 0,-8.502 0.003,-17.004 -0.002,-25.506 z"
       class="fil1"
       id="_179249920" />
    <path
       style="fill:#ffffff"
       inkscape:connector-curvature="0"
       d="m 268.662,56.237 c 1.007,-0.05 2.016,-0.027 3.025,-0.03 0.654,-0.067 1.116,0.502 1.498,0.95 0.166,0.497 0.142,1.122 -0.208,1.54 -0.254,0.366 -0.673,0.556 -1.035,0.787 0.646,0.804 1.296,1.618 1.704,2.576 -0.433,0.04 -0.867,0.027 -1.296,-0.006 -0.462,-0.687 -0.763,-1.478 -1.308,-2.106 -0.287,-0.4 -0.832,-0.223 -1.247,-0.28 -0.05,0.8 -0.022,1.6 -0.036,2.402 -0.37,0.01 -0.735,0.01 -1.098,0 -0.016,-1.943 -0.016,-3.888 0,-5.833 m 1.125,0.888 c -0.028,0.477 -0.036,0.955 -0.02,1.433 0.725,-0.027 1.718,0.317 2.19,-0.424 0.076,-0.354 0,-0.782 -0.354,-0.955 -0.598,-0.123 -1.213,-0.048 -1.816,-0.055 z"
       class="fil1"
       id="_179249848" />
    <path
       style="fill:#ffffff"
       inkscape:connector-curvature="0"
       d="m 175.626,61.093 c 0.92,-0.203 1.875,-0.066 2.81,-0.11 0.92,-0.064 1.795,0.294 2.707,0.352 0.384,0.025 0.773,0.057 1.14,0.19 0.887,0.33 1.848,0.462 2.656,0.984 2.754,1.204 4.82,3.67 5.862,6.452 0.68,2.056 1.03,4.244 0.78,6.407 -0.18,0.7 -0.265,1.42 -0.414,2.125 -0.532,1.416 -1.12,2.826 -1.932,4.106 -0.642,0.688 -1.136,1.522 -1.935,2.046 -1.13,0.977 -2.424,1.784 -3.877,2.18 -1.122,0.272 -2.212,0.788 -3.39,0.713 -1.584,-0.038 -3.168,0.045 -4.748,-0.04 -2.54,-0.59 -5.147,-1.41 -7.104,-3.214 -0.91,-0.634 -1.504,-1.588 -2.152,-2.463 -0.99,-1.37 -1.347,-3.046 -1.768,-4.646 -0.12,-0.782 -0.03,-1.576 -0.054,-2.364 -0.082,-1.818 0.323,-3.65 1.063,-5.307 1.346,-3.558 4.63,-6.22 8.31,-7.05 0.683,-0.113 1.377,-0.176 2.046,-0.364 m 0.638,4.94 c -0.635,0.09 -1.28,0.142 -1.872,0.398 -1.743,0.606 -3.47,1.633 -4.348,3.32 -1.004,1.472 -0.89,3.333 -0.848,5.03 0.112,1.17 0.525,2.307 1.116,3.323 1,1.743 2.888,2.725 4.71,3.403 0.78,0.326 1.632,0.26 2.458,0.263 1.47,0.018 2.977,-0.108 4.342,-0.696 1.037,-0.295 1.863,-1.008 2.692,-1.664 1.453,-1.39 2.276,-3.426 2.163,-5.436 -0.027,-0.674 0.09,-1.378 -0.158,-2.022 -0.234,-0.632 -0.328,-1.31 -0.637,-1.91 -0.553,-1.234 -1.53,-2.247 -2.692,-2.918 -1.125,-0.603 -2.323,-1.218 -3.635,-1.177 -1.098,0.036 -2.203,-0.068 -3.29,0.085 z"
       class="fil1"
       id="_179249776" />
    <path
       style="fill:#ffffff"
       inkscape:connector-curvature="0"
       d="m 203.945,61.91 c 0.856,-0.06 1.67,-0.417 2.54,-0.374 1.74,0.055 3.54,-0.18 5.22,0.4 1.04,0.478 2.164,0.798 3.1,1.482 1.81,1.143 3.27,2.83 4.123,4.795 0.373,1.032 0.9,2.017 1.026,3.125 0.375,1.22 0.204,2.498 0.247,3.752 0.067,1.446 -0.482,2.817 -0.896,4.176 -0.427,1.524 -1.425,2.79 -2.407,3.998 -0.494,0.634 -1.186,1.06 -1.793,1.57 -0.68,0.564 -1.53,0.83 -2.314,1.202 -0.735,0.355 -1.558,0.444 -2.33,0.686 -1.08,0.33 -2.223,0.15 -3.334,0.197 -1.053,0.043 -2.1,-0.123 -3.135,-0.27 -0.793,-0.32 -1.68,-0.415 -2.402,-0.898 -0.713,-0.402 -1.433,-0.8 -2.195,-1.1 -0.023,3.774 -0.007,7.55 -0.007,11.326 0.004,0.68 -0.318,1.362 -0.84,1.797 -0.67,0.565 -1.61,0.344 -2.41,0.352 -0.75,-0.024 -1.036,-0.824 -1.29,-1.398 -0.377,-0.787 -0.23,-1.675 -0.248,-2.513 0,-6.216 0.007,-12.432 -0.005,-18.647 -0.098,-1.77 0.512,-3.47 0.625,-5.225 0.69,-2.383 1.813,-4.815 3.89,-6.296 0.723,-0.465 1.404,-1.022 2.24,-1.28 0.868,-0.28 1.67,-0.785 2.597,-0.86 m 1.8,4.47 c -1.296,0.2 -2.516,0.785 -3.582,1.53 -0.963,0.82 -1.81,1.85 -2.176,3.076 -0.193,0.623 -0.6,1.192 -0.605,1.863 -0.063,1.717 0.01,3.498 0.773,5.074 0.452,1.19 1.366,2.14 2.35,2.92 0.834,0.676 1.905,0.902 2.902,1.24 0.953,0.35 1.99,0.252 2.985,0.2 1.428,-0.262 2.888,-0.657 4.07,-1.537 1.837,-1.29 2.792,-3.505 3.085,-5.674 0.367,-3.23 -1.382,-6.64 -4.323,-8.085 -1.7,-0.83 -3.645,-0.728 -5.478,-0.607 z"
       class="fil1"
       id="_179249704" />
    <path
       style="fill:#ffffff"
       inkscape:connector-curvature="0"
       d="m 235.557,61.606 c 0.93,-0.155 2.117,-0.198 2.767,0.618 0.575,0.576 0.488,1.444 0.488,2.19 -0.013,6.852 -0.002,13.708 -0.007,20.56 -0.095,0.892 -0.762,1.858 -1.726,1.916 -0.777,0.075 -1.687,0.178 -2.31,-0.39 -0.415,-0.323 -0.59,-0.853 -0.568,-1.36 0.007,-6.805 0.003,-13.608 0.002,-20.41 0.016,-0.813 -0.134,-1.698 0.322,-2.428 0.185,-0.405 0.64,-0.556 1.03,-0.696 z"
       class="fil1"
       id="_179249632" />
    <path
       style="fill:#ffffff"
       inkscape:connector-curvature="0"
       d="m 251.813,61.6 c 1.744,-0.133 3.527,-0.13 5.24,0.26 1.547,0.56 3.222,0.9 4.527,1.97 1.268,1.067 2.418,2.314 3.222,3.774 0.357,0.806 0.793,1.64 0.734,2.55 0.04,0.797 -0.514,1.567 -1.28,1.788 -1.02,0.504 -2.428,0.265 -3.07,-0.72 -0.592,-0.9 -0.9,-1.99 -1.692,-2.754 -0.493,-0.54 -1.124,-0.915 -1.72,-1.322 -0.784,-0.547 -1.77,-0.613 -2.67,-0.835 -2.985,-0.688 -6.452,0.396 -8.176,3.01 -0.496,0.843 -1.033,1.72 -1.143,2.713 -0.08,0.553 -0.225,1.093 -0.32,1.643 -0.13,0.794 0.114,1.573 0.205,2.356 0.196,1.537 1.022,2.93 2.04,4.068 0.976,0.843 2.08,1.645 3.378,1.884 1.516,0.45 3.183,0.527 4.692,0.013 0.765,-0.176 1.557,-0.338 2.19,-0.84 1.223,-0.716 2.267,-1.757 2.86,-3.058 0.358,-0.59 0.535,-1.494 1.32,-1.644 0.976,-0.065 2.08,-0.167 2.91,0.465 0.572,0.35 0.475,1.11 0.46,1.68 -0.062,1.227 -0.81,2.24 -1.415,3.253 -0.778,1.35 -1.94,2.453 -3.26,3.263 -1.16,0.605 -2.344,1.233 -3.645,1.473 -0.695,0.132 -1.38,0.357 -2.094,0.343 -1.774,-0.027 -3.575,0.115 -5.31,-0.333 -1.566,-0.558 -3.115,-1.224 -4.47,-2.205 -2.38,-1.8 -3.948,-4.596 -4.34,-7.545 -0.248,-1.212 -0.154,-2.453 -0.15,-3.68 0.202,-1.5 0.347,-3.032 0.926,-4.443 0.34,-0.66 0.647,-1.34 1.012,-1.987 0.617,-0.898 1.38,-1.692 2.21,-2.393 1.265,-0.985 2.76,-1.622 4.27,-2.13 0.806,-0.38 1.68,-0.527 2.56,-0.616 z"
       class="fil1"
       id="_179219936" />
    <path
       style="fill:#ffffff"
       inkscape:connector-curvature="0"
       d="m 102.11,62.08 c 0.86,-0.317 1.79,-0.162 2.688,-0.192 0.91,0.027 1.84,-0.1 2.735,0.13 1.4,0.342 2.837,0.69 4.068,1.475 0.415,0.263 0.87,0.453 1.327,0.628 0.473,-0.77 0.63,-1.915 1.64,-2.19 0.83,-0.065 1.843,-0.248 2.49,0.412 0.672,0.523 0.63,1.455 0.714,2.222 0.007,6.752 -0.002,13.504 0.005,20.254 -0.028,0.7 -0.153,1.453 -0.616,2.006 -0.82,0.5 -1.847,0.54 -2.77,0.393 -0.744,-0.46 -1.297,-1.233 -1.302,-2.132 -0.81,0.233 -1.48,0.753 -2.214,1.142 -3.61,1.31 -7.695,1.468 -11.322,0.13 -0.873,-0.4 -1.7,-0.908 -2.47,-1.48 -2.056,-1.405 -3.35,-3.652 -4.218,-5.933 -0.736,-2.36 -1,-4.944 -0.314,-7.346 0.455,-2.267 1.596,-4.374 3.124,-6.095 0.88,-0.963 2.012,-1.644 3.12,-2.307 1.02,-0.6 2.215,-0.728 3.315,-1.117 m 1.03,4.685 c -1.576,0.477 -3.17,1.117 -4.297,2.37 -1.48,1.857 -2.15,4.336 -1.8,6.685 0.28,2.657 2.015,5.168 4.522,6.172 0.982,0.416 2.06,0.467 3.097,0.663 1.017,0.183 1.994,-0.24 2.99,-0.375 1.164,-0.287 2.19,-0.97 3.123,-1.704 0.754,-0.71 1.26,-1.633 1.758,-2.53 0.298,-0.517 0.27,-1.132 0.432,-1.692 0.285,-0.94 0.284,-1.948 0.148,-2.914 -0.283,-1.083 -0.473,-2.23 -1.11,-3.176 -0.476,-0.68 -0.906,-1.425 -1.602,-1.903 -0.67,-0.624 -1.517,-0.996 -2.362,-1.316 -1.3,-0.45 -2.692,-0.344 -4.043,-0.36 -0.287,0.008 -0.577,0.008 -0.855,0.08 z"
       class="fil1"
       id="_179219864" />
    <path
       style="fill:#ffffff"
       inkscape:connector-curvature="0"
       d="m 120.622,62.215 c 0.67,-0.445 1.527,-0.353 2.284,-0.255 1.025,0.152 1.285,1.314 1.578,2.137 0.953,-0.266 1.736,-0.93 2.687,-1.208 1.243,-0.365 2.435,-1.002 3.76,-0.988 0.897,0.03 1.947,-0.193 2.682,0.458 0.397,0.49 0.785,1.07 0.764,1.727 0.024,0.718 -0.145,1.585 -0.816,1.972 -0.772,0.358 -1.61,0.61 -2.465,0.622 -0.836,-0.012 -1.585,0.403 -2.376,0.61 -1.436,0.565 -2.653,1.68 -3.307,3.083 -0.386,0.743 -0.5,1.58 -0.768,2.366 -0.327,0.91 -0.21,1.883 -0.223,2.828 v 8.614 c -0.06,0.835 -0.12,1.737 -0.587,2.46 -0.61,0.512 -1.414,0.998 -2.247,0.8 -0.882,-0.195 -1.564,-0.987 -1.785,-1.842 -0.257,-0.768 -0.158,-1.587 -0.17,-2.38 0.004,-6.273 0,-12.543 0,-18.815 0.074,-0.79 0.208,-1.78 0.99,-2.19 z"
       class="fil1"
       id="_179219792" />
  </g>
  <path
     style="fill:#ffffff;fill-rule:nonzero;stroke:#ffffff;stroke-width:0.38170001;stroke-linecap:round;stroke-linejoin:round"
     inkscape:connector-curvature="0"
     id="path55"
     d="M 98.878,45.74 V 34.873 c 0,-0.114 0.022,-0.224 0.065,-0.326 0.045,-0.1 0.108,-0.19 0.187,-0.267 0.082,-0.075 0.173,-0.133 0.278,-0.176 0.107,-0.04 0.224,-0.062 0.35,-0.062 h 7.678 c 0.244,0 0.453,0.08 0.623,0.243 0.172,0.16 0.257,0.36 0.257,0.586 0,0.23 -0.085,0.43 -0.257,0.59 -0.17,0.162 -0.38,0.242 -0.624,0.242 h -6.8 v 3.775 h 4.884 c 0.244,0 0.45,0.08 0.62,0.243 0.174,0.16 0.26,0.358 0.26,0.585 0,0.23 -0.086,0.428 -0.26,0.588 -0.17,0.163 -0.376,0.244 -0.62,0.244 h -4.883 v 4.603 c 0,0.23 -0.085,0.427 -0.257,0.588 -0.17,0.163 -0.38,0.243 -0.62,0.243 -0.245,0 -0.455,-0.08 -0.624,-0.242 -0.173,-0.16 -0.258,-0.358 -0.258,-0.588 z m 19.897,0.83 c -0.25,0 -0.456,-0.076 -0.615,-0.234 -0.16,-0.155 -0.243,-0.348 -0.25,-0.572 -0.382,0.283 -0.784,0.486 -1.212,0.615 -0.425,0.127 -0.887,0.19 -1.386,0.19 -0.592,0 -1.153,-0.108 -1.677,-0.325 -0.528,-0.216 -0.987,-0.508 -1.38,-0.88 -0.392,-0.37 -0.703,-0.804 -0.933,-1.3 -0.23,-0.496 -0.346,-1.022 -0.346,-1.58 v -3.87 c 0,-0.224 0.085,-0.416 0.253,-0.576 0.17,-0.16 0.375,-0.24 0.616,-0.24 0.238,0 0.442,0.08 0.612,0.24 0.168,0.16 0.253,0.35 0.253,0.576 v 3.868 c 0,0.34 0.07,0.658 0.205,0.954 0.136,0.3 0.32,0.56 0.555,0.78 0.235,0.223 0.51,0.396 0.828,0.525 0.314,0.128 0.65,0.192 1.014,0.192 0.354,0 0.69,-0.064 1.003,-0.192 0.318,-0.13 0.593,-0.305 0.83,-0.53 0.24,-0.224 0.426,-0.483 0.562,-0.777 0.136,-0.294 0.204,-0.613 0.204,-0.952 v -3.868 c 0,-0.225 0.086,-0.417 0.253,-0.577 0.17,-0.16 0.377,-0.24 0.618,-0.24 0.24,0 0.443,0.08 0.613,0.24 0.167,0.16 0.252,0.35 0.252,0.576 v 7.14 c 0,0.224 -0.085,0.417 -0.252,0.577 -0.17,0.158 -0.377,0.238 -0.618,0.238 z m 6.833,-7.962 c 0.737,-0.537 1.604,-0.807 2.6,-0.807 0.58,0 1.133,0.108 1.657,0.32 0.524,0.215 0.983,0.507 1.383,0.876 0.397,0.366 0.714,0.8 0.947,1.3 0.232,0.5 0.348,1.028 0.348,1.592 v 3.86 c 0,0.23 -0.085,0.425 -0.252,0.585 -0.17,0.158 -0.373,0.238 -0.61,0.238 -0.242,0 -0.45,-0.08 -0.62,-0.237 -0.166,-0.16 -0.25,-0.355 -0.25,-0.585 v -3.86 c 0,-0.334 -0.07,-0.65 -0.208,-0.946 -0.14,-0.3 -0.326,-0.56 -0.56,-0.78 -0.237,-0.223 -0.51,-0.4 -0.83,-0.53 -0.313,-0.13 -0.648,-0.195 -1.002,-0.195 -0.363,0 -0.697,0.064 -1.012,0.192 -0.31,0.127 -0.586,0.304 -0.824,0.528 -0.238,0.225 -0.425,0.484 -0.56,0.784 -0.137,0.296 -0.206,0.612 -0.206,0.946 v 3.86 c 0,0.23 -0.085,0.425 -0.252,0.585 -0.17,0.158 -0.374,0.238 -0.612,0.238 -0.24,0 -0.448,-0.08 -0.618,-0.237 -0.167,-0.16 -0.252,-0.355 -0.252,-0.585 v -7.124 c 0,-0.225 0.085,-0.42 0.252,-0.58 0.17,-0.163 0.377,-0.243 0.618,-0.243 0.238,0 0.442,0.08 0.612,0.244 0.167,0.16 0.252,0.35 0.252,0.564 z m 18.736,3.577 c 0,-0.375 -0.076,-0.728 -0.23,-1.062 -0.15,-0.33 -0.36,-0.62 -0.62,-0.87 -0.264,-0.252 -0.572,-0.45 -0.927,-0.597 -0.354,-0.147 -0.734,-0.22 -1.136,-0.22 -0.41,0 -0.793,0.073 -1.147,0.22 -0.354,0.147 -0.66,0.342 -0.92,0.59 -0.262,0.25 -0.468,0.54 -0.62,0.875 -0.152,0.335 -0.228,0.69 -0.228,1.064 0,0.377 0.076,0.733 0.23,1.067 0.15,0.335 0.356,0.627 0.617,0.875 0.26,0.25 0.567,0.444 0.92,0.59 0.355,0.148 0.738,0.22 1.15,0.22 0.4,0 0.78,-0.072 1.135,-0.22 0.355,-0.146 0.663,-0.344 0.927,-0.595 0.26,-0.25 0.47,-0.54 0.62,-0.872 0.154,-0.334 0.23,-0.687 0.23,-1.064 z M 141.43,37.8 c 1.1,0 2.072,0.32 2.914,0.963 v -3.908 c 0,-0.235 0.082,-0.43 0.244,-0.586 0.164,-0.153 0.37,-0.23 0.62,-0.23 0.24,0 0.448,0.077 0.618,0.23 0.167,0.155 0.252,0.35 0.252,0.585 v 7.33 c 0,1.22 -0.453,2.256 -1.36,3.1 -0.92,0.858 -2.015,1.286 -3.287,1.286 -1.286,0 -2.38,-0.427 -3.29,-1.282 -0.906,-0.858 -1.36,-1.89 -1.36,-3.103 0,-1.21 0.454,-2.243 1.36,-3.1 0.91,-0.857 2.007,-1.284 3.29,-1.284 z m 13.562,1.637 c -0.41,0 -0.794,0.072 -1.148,0.22 -0.354,0.146 -0.66,0.34 -0.92,0.59 -0.262,0.248 -0.468,0.54 -0.62,0.874 -0.152,0.335 -0.228,0.69 -0.228,1.065 0,0.376 0.076,0.732 0.23,1.066 0.15,0.335 0.356,0.627 0.617,0.875 0.26,0.25 0.567,0.444 0.92,0.59 0.355,0.148 0.738,0.22 1.15,0.22 0.4,0 0.78,-0.072 1.135,-0.22 0.355,-0.146 0.663,-0.344 0.927,-0.595 0.26,-0.25 0.47,-0.54 0.62,-0.872 0.154,-0.334 0.23,-0.687 0.23,-1.063 0,-0.375 -0.076,-0.728 -0.23,-1.062 -0.15,-0.33 -0.36,-0.62 -0.62,-0.87 -0.264,-0.252 -0.572,-0.45 -0.927,-0.597 -0.354,-0.147 -0.734,-0.22 -1.136,-0.22 z m 2.913,6.32 V 45.6 c -0.417,0.314 -0.867,0.554 -1.355,0.72 -0.487,0.168 -1.005,0.25 -1.558,0.25 -1.287,0 -2.38,-0.427 -3.29,-1.282 -0.907,-0.858 -1.36,-1.89 -1.36,-3.103 0,-1.21 0.453,-2.243 1.36,-3.1 0.91,-0.857 2.003,-1.284 3.29,-1.284 1.272,0 2.366,0.428 3.287,1.284 0.906,0.858 1.36,1.89 1.36,3.1 v 3.572 c 0,0.224 -0.086,0.417 -0.253,0.577 -0.17,0.158 -0.374,0.238 -0.612,0.238 -0.24,0 -0.448,-0.08 -0.618,-0.237 -0.167,-0.16 -0.252,-0.353 -0.252,-0.577 z m 13.074,-1.67 c 0.245,0 0.452,0.078 0.616,0.23 0.162,0.156 0.244,0.35 0.244,0.586 0,0.23 -0.09,0.43 -0.272,0.602 -0.86,0.71 -1.87,1.066 -3.032,1.066 -1.284,0 -2.38,-0.427 -3.288,-1.282 -0.906,-0.858 -1.36,-1.89 -1.36,-3.103 0,-1.21 0.454,-2.243 1.36,-3.1 0.907,-0.857 2.004,-1.284 3.288,-1.284 1.167,0 2.18,0.356 3.032,1.067 0.198,0.166 0.298,0.372 0.298,0.618 0,0.235 -0.083,0.43 -0.244,0.588 -0.165,0.158 -0.37,0.235 -0.62,0.235 -0.21,0 -0.398,-0.06 -0.565,-0.187 -0.28,-0.226 -0.578,-0.395 -0.887,-0.51 -0.31,-0.115 -0.65,-0.173 -1.014,-0.173 -0.403,0 -0.782,0.072 -1.137,0.216 -0.355,0.142 -0.664,0.34 -0.93,0.586 -0.266,0.247 -0.476,0.54 -0.626,0.873 -0.153,0.334 -0.23,0.692 -0.23,1.072 0,0.382 0.077,0.74 0.23,1.074 0.15,0.333 0.36,0.625 0.626,0.873 0.266,0.246 0.575,0.444 0.93,0.586 0.354,0.143 0.733,0.215 1.136,0.215 0.365,0 0.703,-0.056 1.014,-0.168 0.31,-0.112 0.604,-0.28 0.88,-0.505 0.155,-0.113 0.336,-0.17 0.55,-0.174 z m 7.503,-7.847 c 0,0.267 -0.1,0.494 -0.297,0.68 -0.198,0.19 -0.44,0.285 -0.723,0.285 -0.28,0 -0.52,-0.094 -0.722,-0.284 -0.198,-0.186 -0.297,-0.413 -0.297,-0.68 0,-0.265 0.1,-0.492 0.298,-0.68 0.202,-0.19 0.443,-0.283 0.723,-0.283 0.284,0 0.525,0.094 0.723,0.284 0.198,0.188 0.297,0.415 0.297,0.68 z m -1.88,9.508 V 38.62 c 0,-0.23 0.084,-0.42 0.25,-0.58 0.17,-0.16 0.375,-0.24 0.613,-0.24 0.235,0 0.44,0.08 0.61,0.24 0.167,0.16 0.254,0.35 0.26,0.58 v 7.128 c -0.006,0.23 -0.093,0.425 -0.26,0.585 -0.17,0.158 -0.375,0.238 -0.61,0.238 -0.238,0 -0.442,-0.08 -0.612,-0.237 -0.167,-0.16 -0.252,-0.355 -0.252,-0.585 z m 15.747,-3.563 c 0,1.22 -0.453,2.256 -1.36,3.103 -0.92,0.855 -2.015,1.283 -3.287,1.283 -1.287,0 -2.38,-0.427 -3.29,-1.282 -0.907,-0.858 -1.36,-1.89 -1.36,-3.103 0,-1.21 0.453,-2.243 1.36,-3.1 0.91,-0.857 2.003,-1.284 3.29,-1.284 1.272,0 2.366,0.428 3.287,1.284 0.454,0.43 0.79,0.9 1.015,1.42 0.226,0.515 0.34,1.076 0.345,1.68 z m -4.647,-2.748 c -0.41,0 -0.794,0.072 -1.148,0.22 -0.354,0.146 -0.66,0.34 -0.92,0.59 -0.262,0.248 -0.468,0.54 -0.62,0.874 -0.152,0.335 -0.228,0.69 -0.228,1.065 0,0.376 0.076,0.732 0.23,1.066 0.15,0.335 0.356,0.627 0.617,0.875 0.26,0.25 0.567,0.444 0.92,0.59 0.355,0.148 0.738,0.22 1.15,0.22 0.4,0 0.78,-0.072 1.135,-0.22 0.354,-0.146 0.662,-0.344 0.926,-0.595 0.26,-0.25 0.47,-0.54 0.62,-0.872 0.154,-0.334 0.23,-0.687 0.23,-1.063 0,-0.375 -0.076,-0.728 -0.23,-1.062 -0.15,-0.33 -0.36,-0.62 -0.62,-0.87 -0.264,-0.252 -0.572,-0.45 -0.927,-0.597 -0.355,-0.147 -0.735,-0.22 -1.137,-0.22 z m 1.794,-3.994 -1.659,1.557 c -0.157,0.148 -0.355,0.22 -0.6,0.22 -0.248,0 -0.455,-0.077 -0.617,-0.23 -0.164,-0.154 -0.246,-0.35 -0.246,-0.585 0,-0.224 0.073,-0.41 0.215,-0.556 l 1.66,-1.56 c 0.178,-0.162 0.382,-0.242 0.615,-0.242 0.25,0 0.456,0.08 0.618,0.238 0.164,0.16 0.246,0.355 0.246,0.585 0,0.236 -0.077,0.426 -0.233,0.573 z m 8.842,3.165 c 0.736,-0.537 1.603,-0.807 2.598,-0.807 0.58,0 1.133,0.108 1.658,0.32 0.524,0.215 0.983,0.507 1.383,0.876 0.395,0.366 0.713,0.8 0.945,1.3 0.233,0.5 0.35,1.028 0.35,1.592 v 3.86 c 0,0.23 -0.086,0.425 -0.253,0.585 -0.17,0.158 -0.374,0.238 -0.612,0.238 -0.24,0 -0.448,-0.08 -0.618,-0.237 -0.168,-0.16 -0.253,-0.355 -0.253,-0.585 v -3.86 c 0,-0.334 -0.07,-0.65 -0.207,-0.946 -0.14,-0.3 -0.326,-0.56 -0.562,-0.78 -0.234,-0.223 -0.51,-0.4 -0.826,-0.53 -0.315,-0.13 -0.65,-0.195 -1.003,-0.195 -0.362,0 -0.696,0.064 -1.01,0.192 -0.313,0.127 -0.588,0.304 -0.826,0.528 -0.238,0.225 -0.425,0.484 -0.56,0.784 -0.137,0.296 -0.205,0.612 -0.205,0.946 v 3.86 c 0,0.23 -0.086,0.425 -0.253,0.585 -0.17,0.158 -0.374,0.238 -0.612,0.238 -0.24,0 -0.448,-0.08 -0.618,-0.237 -0.167,-0.16 -0.252,-0.355 -0.252,-0.585 v -7.124 c 0,-0.225 0.085,-0.42 0.252,-0.58 0.17,-0.163 0.377,-0.243 0.618,-0.243 0.238,0 0.442,0.08 0.612,0.244 0.167,0.16 0.252,0.35 0.252,0.564 z"
     class="fil2 str0" />
</svg>
