<svg xmlns="http://www.w3.org/2000/svg" width="279.4mm" height="140mm" viewBox="0 0 279.4 140" shape-rendering="geometricPrecision" text-rendering="geometricPrecision" image-rendering="optimizeQuality" fill-rule="evenodd" clip-rule="evenodd"><defs><style><![CDATA[
    .str0 {stroke:#1F1A17;stroke-width:0.3817;stroke-linecap:round;stroke-linejoin:round}
    .fil1 {fill:#1F1A17}
    .fil0 {fill:#31A463}
    .fil2 {fill:#1F1A17;fill-rule:nonzero}
   ]]></style></defs><g id="Capa_x0020_1"><path class="fil0" d="M135.305 3.746c4.255 0 10.727-.534 14.434.814.584.254.717 1.247.074 1.51-1.213.71-2.69.685-4.053.7-1.28-.066-2.546.213-3.826.18-.894-.01-1.79-.056-2.68.052-1.595.255-3.214.04-4.81.274-1.817-.008-3.605.36-5.42.41-1.867.1-3.713.43-5.576.553-1.667-.01-3.27.536-4.932.595-2.604.324-5.204.69-7.79 1.132-2.07.507-4.207.652-6.265 1.2-3.317.502-6.542 1.45-9.83 2.09-1.335.245-2.6.774-3.946.97-2.51.588-4.997 1.286-7.466 2.03-1.628.262-3.132.95-4.72 1.362-4.332 1.354-8.658 2.73-12.94 4.24-1.604.482-3.11 1.236-4.73 1.67-2.39.833-4.778 1.666-7.115 2.637-1.858.86-3.805 1.524-5.604 2.51-.876.49-1.853.76-2.71 1.284-.924.57-1.92 1.013-2.855 1.563-3.005 1.606-5.84 3.508-8.647 5.433-.97.652-1.843 1.436-2.783 2.128-1.21.9-2.305 1.94-3.465 2.9-.936.76-1.752 1.652-2.608 2.5-.864.89-1.793 1.72-2.577 2.686-2.908 3.245-5.587 6.742-7.53 10.658-1.05 1.835-1.6 3.888-2.267 5.877-.274.84-.366 1.722-.567 2.58-.428 1.7-.146 3.467-.237 5.2-.1 1.36.29 2.675.536 3.998 1.255 5.608 4.462 10.565 8.247 14.81 1.505 1.52 3.007 3.043 4.54 4.533 2.176 1.883 4.382 3.738 6.726 5.407 2.1 1.447 4.347 2.665 6.542 3.96 2.7 1.56 5.483 2.968 8.286 4.333 2.442 1.296 4.97 2.42 7.51 3.503 1.102.578 2.31.906 3.427 1.448 1.71.73 3.44 1.41 5.207 1.997 1.153.467 2.307.928 3.496 1.298 4.327 1.595 8.803 2.717 13.247 3.935 2.088.508 4.138 1.175 6.253 1.573 3.194.88 6.46 1.463 9.687 2.212 2.506.432 4.965 1.12 7.49 1.462 1.175.114 2.305.505 3.488.58 1.136.075 2.215.495 3.353.553 1.288.08 2.544.413 3.83.527.652.06 1.303.155 1.95.27 1.634.31 3.31.293 4.942.623 1.07.23 2.168.21 3.255.29 2.047.303 4.116.41 6.175.6 1.12.12 2.25-.012 3.365.165 1.466.23 2.96-.025 4.428.204 1.74.107 3.47.308 5.215.28 2.902.337 5.832.036 8.742.198 1.534.26 3.093.134 4.64.158 4.356 0 8.713.003 13.07 0 1.008.002 2.025.058 3.027-.1.896-.148 1.806-.1 2.713-.093.905.007 1.798-.182 2.705-.182.994-.012 1.995.065 2.988-.07 1.1-.158 2.216-.055 3.316-.205.764-.105 1.537-.092 2.308-.092 1.177.01 2.323-.315 3.497-.348 1.655-.035 3.29-.348 4.945-.387 1.074-.015 2.123-.27 3.19-.35 1.885-.06 3.73-.49 5.594-.726 1.665-.12 3.288-.537 4.94-.75 2.09-.477 4.233-.654 6.314-1.17 2.858-.458 5.665-1.18 8.488-1.82 2.018-.33 3.973-.95 5.977-1.35 2.125-.404 4.22-.946 6.337-1.37 1.126-.346 2.31-.432 3.43-.81.91-.29 1.876-.317 2.788-.607.805-.22 1.637-.52 2.485-.38.255.055.513.175.673.395.13.41-.086.875-.413 1.134-1.45 1.11-3.196 1.7-4.82 2.498-1.682.585-3.338 1.245-5.018 1.835-2.566.803-5.16 1.51-7.767 2.174-1.31.46-2.69.652-4.015 1.05-1.83.496-3.664.98-5.52 1.362-.985.183-1.917.563-2.904.72-.954.144-1.877.426-2.828.563-.662.097-1.325.193-1.972.354-1.08.265-2.195.324-3.274.585-1.058.24-2.15.27-3.208.503-2.535.643-5.17.702-7.724 1.246-1.154.258-2.348.15-3.502.384-1.37.305-2.785.263-4.167.497-2.136.373-4.32.306-6.457.683-1.192.224-2.41.082-3.61.226-1.034.118-2.067.255-3.106.28-.41-.008-.797.13-1.17.275h-29.056c-.373-.142-.75-.3-1.154-.284-1.257-.003-2.52.098-3.772-.07-1.903-.242-3.83.07-5.73-.186-1.86-.247-3.743.04-5.605-.166-.907-.116-1.82-.072-2.73-.156-1.33-.174-2.673-.153-4.006-.292-1.288.026-2.554-.244-3.84-.23-1.2 0-2.358-.358-3.547-.465-1.386-.134-2.76-.37-4.136-.587-1.66-.156-3.293-.515-4.95-.695-1.024-.11-1.99-.5-3.013-.612-.806-.092-1.615-.177-2.407-.352-.996-.23-2.026-.266-3.012-.54-1.25-.356-2.55-.47-3.82-.72-1.663-.197-3.254-.74-4.905-1.002-1.4-.4-2.86-.53-4.253-.96-1.658-.366-3.326-.682-4.963-1.128-1.683-.48-3.422-.743-5.083-1.294-1.384-.446-2.835-.638-4.218-1.086-1.873-.542-3.77-1.015-5.596-1.71-2.01-.714-4.06-1.315-6.045-2.1-13.43-5.096-26.38-11.658-37.945-20.223-.77-.61-1.433-1.34-2.13-2.028-1.188-1.203-2.404-2.378-3.582-3.59-1.194-1.357-2.35-2.745-3.478-4.158-1.942-2.402-3.594-5.027-4.984-7.784-.503-1.073-1.074-2.125-1.38-3.277-.62-1.74-1.085-3.54-1.318-5.373-.12-1.318-.02-2.643-.05-3.963-.036-1.637.01-3.29.41-4.887.208-.814.3-1.65.48-2.47.37-1.577.893-3.115 1.186-4.71.36-1.49.77-2.982 1.482-4.347 1.194-2.717 2.79-5.23 4.484-7.66 1.586-2.153 3.22-4.29 5.172-6.132 1.432-1.382 2.755-2.885 4.305-4.143 3.242-2.82 6.683-5.41 10.316-7.703 3.785-2.366 7.59-4.758 11.745-6.43 1.503-.75 3.112-1.24 4.654-1.897 3.106-1.336 6.328-2.38 9.49-3.573 1.914-.836 3.99-1.204 5.918-1.994 1.04-.375 2.13-.59 3.164-.977 1.418-.52 2.942-.675 4.343-1.247 1.067-.433 2.232-.504 3.32-.87.91-.303 1.84-.542 2.782-.705.968-.16 1.886-.517 2.83-.767 2.65-.56 5.31-1.057 7.936-1.715 2.744-.473 5.48-.982 8.216-1.5 1.495-.09 2.922-.628 4.422-.67 1.4-.052 2.75-.48 4.15-.533 1.618-.098 3.22-.356 4.81-.67 2.014-.19 4.035-.31 6.043-.554 4.21-.66 16.118-1.312 20.605-1.424z"/><g id="__x0023_131516ff"><path id="_179250136" class="fil1" d="M269.87 53.69c.846-.087 1.71-.095 2.56-.02.664.215 1.313.534 1.884.942.583.586 1.28 1.122 1.594 1.917.51 1.062.468 2.274.452 3.424.007 1.134-.688 2.128-1.43 2.924-1.03.89-2.31 1.743-3.734 1.61-1.144-.064-2.325-.264-3.272-.955-2.364-1.513-3.138-4.996-1.605-7.348.87-1.178 2.03-2.302 3.55-2.495m.148 1.11c-.948.208-1.87.714-2.438 1.52-.648.952-1.078 2.135-.933 3.296.24.903.606 1.818 1.32 2.457 1.473 1.704 4.417 1.745 5.99.15.983-.818 1.465-2.135 1.336-3.4.063-1.436-.756-2.836-2.01-3.524-.952-.65-2.168-.664-3.265-.5z"/><path id="_179250064" class="fil1" d="M39.153 54.932c2.296-.437 4.668-.806 7.002-.432 1.713.04 3.412.42 5.006 1.046 1.225.274 2.25 1.02 3.28 1.69.567.385 1.065.855 1.6 1.278.595.462.98 1.125 1.51 1.652.486.49.765 1.154 1.305 1.594.916-1.222 1.916-2.398 3.12-3.348 1.242-.84 2.514-1.676 3.946-2.157.683-.212 1.33-.548 2.047-.63 1.073-.142 2.104-.56 3.198-.532 1.276.013 2.553 0 3.83.005 1.19-.002 2.32.424 3.487.59.89.146 1.648.667 2.482.98 1.6.61 2.963 1.685 4.252 2.783 2.243 2.133 3.684 5.01 4.374 8 .067 1.013.29 2.006.378 3.013.04 2.815-.035 5.635.032 8.45.293 1.525.118 3.082.167 4.625.04 1.178-.05 2.368-.37 3.506-.27.86-1.214 1.276-2.05 1.35-.85.106-1.665-.294-2.336-.774-.756-.917-.59-2.18-.594-3.285.042-1.543-.12-3.097.155-4.626.068-1.698-.002-3.4.033-5.098.04-.966-.262-1.906-.187-2.872.075-.914-.208-1.79-.42-2.662-.418-2.976-2.18-5.83-4.85-7.29-.758-.46-1.62-.695-2.425-1.056-1.76-.578-3.64-.526-5.468-.457-.913.137-1.855.172-2.727.504-1.033.42-2.145.687-3.057 1.358-.63.472-1.353.866-1.814 1.524-.516.727-1.093 1.43-1.407 2.278-.252.683-.57 1.342-.764 2.046-.322 1.553-.47 3.132-.64 4.707-.01 4.2 0 8.403-.002 12.603-.017.66-.098 1.324-.26 1.965-.625.92-1.837 1.22-2.893 1.136-.523.01-.97-.31-1.317-.67-.348-.356-.733-.777-.693-1.314.003-4.412.003-8.823 0-13.235-.008-.977.067-1.963-.11-2.93-.152-1.233-.25-2.497-.73-3.656-.652-1.384-1.422-2.735-2.488-3.846-.626-.5-1.195-1.07-1.877-1.494-.71-.457-1.526-.704-2.29-1.05-.715-.34-1.51-.407-2.282-.517-3.05-.546-6.237.192-8.904 1.72-1.995 1.065-3.376 3.032-4.082 5.145-.258 1.202-.872 2.34-.818 3.596.06 1.03-.4 2-.37 3.03.01 1.543.007 3.086 0 4.63-.01.75.22 1.476.198 2.227-.014 2.075-.003 4.15-.003 6.224.022 1.245-1.223 2.273-2.434 2.152-.888.065-1.856-.303-2.35-1.065-.29-.525-.395-1.132-.384-1.727.022-4.466-.01-8.932.016-13.398.123-.89.174-1.787.215-2.686.273-1.507.2-3.093.85-4.51.68-2.96 2.72-5.42 5.095-7.22 1.765-1.277 3.732-2.264 5.825-2.868z"/><path id="_179249992" class="fil1" d="M222.91 55.796c.622-.725 1.69-.53 2.538-.497 1.012.137 1.387 1.242 1.546 2.11.077 1.37-.03 2.747.042 4.118.962.04 1.927-.01 2.89.01.686 0 1.365.367 1.775.914.34.784.43 1.722.028 2.503-.237.75-1.047 1.185-1.8 1.177-.965.015-1.93-.035-2.894.016-.043 5.636-.008 11.274-.016 16.912.008 1.06.105 2.274-.645 3.133-.573.77-1.64.794-2.508.722-1.007-.126-1.544-1.187-1.635-2.096-.003-6.16 0-12.322 0-18.482-1.248-.078-2.725.218-3.738-.7-.73-.586-.78-1.618-.642-2.472.11-.484.253-1.06.763-1.273 1.123-.563 2.412-.278 3.615-.372.015-1.27-.01-2.54-.004-3.81-.013-.695.312-1.347.685-1.914z"/><path id="_179249920" class="fil1" d="M136.574 57.87c-.01-.874.41-1.832 1.25-2.19.865-.125 1.758-.004 2.594.234.493.37.815 1.012.773 1.637-.018 4.2.003 8.4-.01 12.598-.017.55 0 1.104.06 1.654 2.194.092 4.395.01 6.593.038 1.887.08 3.802-.223 5.558-.926.873-.325 1.48-1.057 2.115-1.702.57-.574.865-1.35 1.114-2.104.257-.944.69-1.838.828-2.815.177-.93.452-1.967 1.294-2.517.744-.142 1.6-.138 2.227.353.397.322.86.67.993 1.192.177 1.545-.102 3.097-.438 4.6-.475 1.142-.795 2.367-1.517 3.39-.7 1.08-1.73 1.873-2.597 2.81.57.654 1.09 1.352 1.734 1.94 1.922 1.966 2.93 4.738 2.86 7.476-.036.915.14 1.895-.304 2.74-.403.708-1.173 1.343-2.037 1.18-.642-.18-1.25-.498-1.787-.893-.6-.748-.42-1.768-.546-2.654-.278-1.424-.505-2.9-1.234-4.182-.99-1.772-2.995-2.733-4.927-3.068-1.016.008-2.003-.285-3.018-.236-1.758.02-3.514-.003-5.27.007-.58-.004-1.136.16-1.695.28 0 .95-.03 1.9.008 2.85.27 1.896.23 3.833-.005 5.73.048 1.104-1.02 2.137-2.12 2.022-.728.015-1.637-.105-2.002-.832-.61-.92-.5-2.056-.492-3.103 0-8.502.003-17.004-.002-25.506z"/><path id="_179249848" class="fil1" d="M268.662 56.237c1.007-.05 2.016-.027 3.025-.03.654-.067 1.116.502 1.498.95.166.497.142 1.122-.208 1.54-.254.366-.673.556-1.035.787.646.804 1.296 1.618 1.704 2.576-.433.04-.867.027-1.296-.006-.462-.687-.763-1.478-1.308-2.106-.287-.4-.832-.223-1.247-.28-.05.8-.022 1.6-.036 2.402-.37.01-.735.01-1.098 0-.016-1.943-.016-3.888 0-5.833m1.125.888c-.028.477-.036.955-.02 1.433.725-.027 1.718.317 2.19-.424.076-.354 0-.782-.354-.955-.598-.123-1.213-.048-1.816-.055z"/><path id="_179249776" class="fil1" d="M175.626 61.093c.92-.203 1.875-.066 2.81-.11.92-.064 1.795.294 2.707.352.384.025.773.057 1.14.19.887.33 1.848.462 2.656.984 2.754 1.204 4.82 3.67 5.862 6.452.68 2.056 1.03 4.244.78 6.407-.18.7-.265 1.42-.414 2.125-.532 1.416-1.12 2.826-1.932 4.106-.642.688-1.136 1.522-1.935 2.046-1.13.977-2.424 1.784-3.877 2.18-1.122.272-2.212.788-3.39.713-1.584-.038-3.168.045-4.748-.04-2.54-.59-5.147-1.41-7.104-3.214-.91-.634-1.504-1.588-2.152-2.463-.99-1.37-1.347-3.046-1.768-4.646-.12-.782-.03-1.576-.054-2.364-.082-1.818.323-3.65 1.063-5.307 1.346-3.558 4.63-6.22 8.31-7.05.683-.113 1.377-.176 2.046-.364m.638 4.94c-.635.09-1.28.142-1.872.398-1.743.606-3.47 1.633-4.348 3.32-1.004 1.472-.89 3.333-.848 5.03.112 1.17.525 2.307 1.116 3.323 1 1.743 2.888 2.725 4.71 3.403.78.326 1.632.26 2.458.263 1.47.018 2.977-.108 4.342-.696 1.037-.295 1.863-1.008 2.692-1.664 1.453-1.39 2.276-3.426 2.163-5.436-.027-.674.09-1.378-.158-2.022-.234-.632-.328-1.31-.637-1.91-.553-1.234-1.53-2.247-2.692-2.918-1.125-.603-2.323-1.218-3.635-1.177-1.098.036-2.203-.068-3.29.085z"/><path id="_179249704" class="fil1" d="M203.945 61.91c.856-.06 1.67-.417 2.54-.374 1.74.055 3.54-.18 5.22.4 1.04.478 2.164.798 3.1 1.482 1.81 1.143 3.27 2.83 4.123 4.795.373 1.032.9 2.017 1.026 3.125.375 1.22.204 2.498.247 3.752.067 1.446-.482 2.817-.896 4.176-.427 1.524-1.425 2.79-2.407 3.998-.494.634-1.186 1.06-1.793 1.57-.68.564-1.53.83-2.314 1.202-.735.355-1.558.444-2.33.686-1.08.33-2.223.15-3.334.197-1.053.043-2.1-.123-3.135-.27-.793-.32-1.68-.415-2.402-.898-.713-.402-1.433-.8-2.195-1.1-.023 3.774-.007 7.55-.007 11.326.004.68-.318 1.362-.84 1.797-.67.565-1.61.344-2.41.352-.75-.024-1.036-.824-1.29-1.398-.377-.787-.23-1.675-.248-2.513 0-6.216.007-12.432-.005-18.647-.098-1.77.512-3.47.625-5.225.69-2.383 1.813-4.815 3.89-6.296.723-.465 1.404-1.022 2.24-1.28.868-.28 1.67-.785 2.597-.86m1.8 4.47c-1.296.2-2.516.785-3.582 1.53-.963.82-1.81 1.85-2.176 3.076-.193.623-.6 1.192-.605 1.863-.063 1.717.01 3.498.773 5.074.452 1.19 1.366 2.14 2.35 2.92.834.676 1.905.902 2.902 1.24.953.35 1.99.252 2.985.2 1.428-.262 2.888-.657 4.07-1.537 1.837-1.29 2.792-3.505 3.085-5.674.367-3.23-1.382-6.64-4.323-8.085-1.7-.83-3.645-.728-5.478-.607z"/><path id="_179249632" class="fil1" d="M235.557 61.606c.93-.155 2.117-.198 2.767.618.575.576.488 1.444.488 2.19-.013 6.852-.002 13.708-.007 20.56-.095.892-.762 1.858-1.726 1.916-.777.075-1.687.178-2.31-.39-.415-.323-.59-.853-.568-1.36.007-6.805.003-13.608.002-20.41.016-.813-.134-1.698.322-2.428.185-.405.64-.556 1.03-.696z"/><path id="_179219936" class="fil1" d="M251.813 61.6c1.744-.133 3.527-.13 5.24.26 1.547.56 3.222.9 4.527 1.97 1.268 1.067 2.418 2.314 3.222 3.774.357.806.793 1.64.734 2.55.04.797-.514 1.567-1.28 1.788-1.02.504-2.428.265-3.07-.72-.592-.9-.9-1.99-1.692-2.754-.493-.54-1.124-.915-1.72-1.322-.784-.547-1.77-.613-2.67-.835-2.985-.688-6.452.396-8.176 3.01-.496.843-1.033 1.72-1.143 2.713-.08.553-.225 1.093-.32 1.643-.13.794.114 1.573.205 2.356.196 1.537 1.022 2.93 2.04 4.068.976.843 2.08 1.645 3.378 1.884 1.516.45 3.183.527 4.692.013.765-.176 1.557-.338 2.19-.84 1.223-.716 2.267-1.757 2.86-3.058.358-.59.535-1.494 1.32-1.644.976-.065 2.08-.167 2.91.465.572.35.475 1.11.46 1.68-.062 1.227-.81 2.24-1.415 3.253-.778 1.35-1.94 2.453-3.26 3.263-1.16.605-2.344 1.233-3.645 1.473-.695.132-1.38.357-2.094.343-1.774-.027-3.575.115-5.31-.333-1.566-.558-3.115-1.224-4.47-2.205-2.38-1.8-3.948-4.596-4.34-7.545-.248-1.212-.154-2.453-.15-3.68.202-1.5.347-3.032.926-4.443.34-.66.647-1.34 1.012-1.987.617-.898 1.38-1.692 2.21-2.393 1.265-.985 2.76-1.622 4.27-2.13.806-.38 1.68-.527 2.56-.616z"/><path id="_179219864" class="fil1" d="M102.11 62.08c.86-.317 1.79-.162 2.688-.192.91.027 1.84-.1 2.735.13 1.4.342 2.837.69 4.068 1.475.415.263.87.453 1.327.628.473-.77.63-1.915 1.64-2.19.83-.065 1.843-.248 2.49.412.672.523.63 1.455.714 2.222.007 6.752-.002 13.504.005 20.254-.028.7-.153 1.453-.616 2.006-.82.5-1.847.54-2.77.393-.744-.46-1.297-1.233-1.302-2.132-.81.233-1.48.753-2.214 1.142-3.61 1.31-7.695 1.468-11.322.13-.873-.4-1.7-.908-2.47-1.48-2.056-1.405-3.35-3.652-4.218-5.933-.736-2.36-1-4.944-.314-7.346.455-2.267 1.596-4.374 3.124-6.095.88-.963 2.012-1.644 3.12-2.307 1.02-.6 2.215-.728 3.315-1.117m1.03 4.685c-1.576.477-3.17 1.117-4.297 2.37-1.48 1.857-2.15 4.336-1.8 6.685.28 2.657 2.015 5.168 4.522 6.172.982.416 2.06.467 3.097.663 1.017.183 1.994-.24 2.99-.375 1.164-.287 2.19-.97 3.123-1.704.754-.71 1.26-1.633 1.758-2.53.298-.517.27-1.132.432-1.692.285-.94.284-1.948.148-2.914-.283-1.083-.473-2.23-1.11-3.176-.476-.68-.906-1.425-1.602-1.903-.67-.624-1.517-.996-2.362-1.316-1.3-.45-2.692-.344-4.043-.36-.287.008-.577.008-.855.08z"/><path id="_179219792" class="fil1" d="M120.622 62.215c.67-.445 1.527-.353 2.284-.255 1.025.152 1.285 1.314 1.578 2.137.953-.266 1.736-.93 2.687-1.208 1.243-.365 2.435-1.002 3.76-.988.897.03 1.947-.193 2.682.458.397.49.785 1.07.764 1.727.024.718-.145 1.585-.816 1.972-.772.358-1.61.61-2.465.622-.836-.012-1.585.403-2.376.61-1.436.565-2.653 1.68-3.307 3.083-.386.743-.5 1.58-.768 2.366-.327.91-.21 1.883-.223 2.828v8.614c-.06.835-.12 1.737-.587 2.46-.61.512-1.414.998-2.247.8-.882-.195-1.564-.987-1.785-1.842-.257-.768-.158-1.587-.17-2.38.004-6.273 0-12.543 0-18.815.074-.79.208-1.78.99-2.19z"/></g><path class="fil2 str0" d="M98.878 45.74V34.873c0-.114.022-.224.065-.326.045-.1.108-.19.187-.267.082-.075.173-.133.278-.176.107-.04.224-.062.35-.062h7.678c.244 0 .453.08.623.243.172.16.257.36.257.586 0 .23-.085.43-.257.59-.17.162-.38.242-.624.242h-6.8v3.775h4.884c.244 0 .45.08.62.243.174.16.26.358.26.585 0 .23-.086.428-.26.588-.17.163-.376.244-.62.244h-4.883v4.603c0 .23-.085.427-.257.588-.17.163-.38.243-.62.243-.245 0-.455-.08-.624-.242-.173-.16-.258-.358-.258-.588zm19.897.83c-.25 0-.456-.076-.615-.234-.16-.155-.243-.348-.25-.572-.382.283-.784.486-1.212.615-.425.127-.887.19-1.386.19-.592 0-1.153-.108-1.677-.325-.528-.216-.987-.508-1.38-.88-.392-.37-.703-.804-.933-1.3-.23-.496-.346-1.022-.346-1.58v-3.87c0-.224.085-.416.253-.576.17-.16.375-.24.616-.24.238 0 .442.08.612.24.168.16.253.35.253.576v3.868c0 .34.07.658.205.954.136.3.32.56.555.78.235.223.51.396.828.525.314.128.65.192 1.014.192.354 0 .69-.064 1.003-.192.318-.13.593-.305.83-.53.24-.224.426-.483.562-.777.136-.294.204-.613.204-.952v-3.868c0-.225.086-.417.253-.577.17-.16.377-.24.618-.24.24 0 .443.08.613.24.167.16.252.35.252.576v7.14c0 .224-.085.417-.252.577-.17.158-.377.238-.618.238zm6.833-7.962c.737-.537 1.604-.807 2.6-.807.58 0 1.133.108 1.657.32.524.215.983.507 1.383.876.397.366.714.8.947 1.3.232.5.348 1.028.348 1.592v3.86c0 .23-.085.425-.252.585-.17.158-.373.238-.61.238-.242 0-.45-.08-.62-.237-.166-.16-.25-.355-.25-.585v-3.86c0-.334-.07-.65-.208-.946-.14-.3-.326-.56-.56-.78-.237-.223-.51-.4-.83-.53-.313-.13-.648-.195-1.002-.195-.363 0-.697.064-1.012.192-.31.127-.586.304-.824.528-.238.225-.425.484-.56.784-.137.296-.206.612-.206.946v3.86c0 .23-.085.425-.252.585-.17.158-.374.238-.612.238-.24 0-.448-.08-.618-.237-.167-.16-.252-.355-.252-.585v-7.124c0-.225.085-.42.252-.58.17-.163.377-.243.618-.243.238 0 .442.08.612.244.167.16.252.35.252.564zm18.736 3.577c0-.375-.076-.728-.23-1.062-.15-.33-.36-.62-.62-.87-.264-.252-.572-.45-.927-.597-.354-.147-.734-.22-1.136-.22-.41 0-.793.073-1.147.22-.354.147-.66.342-.92.59-.262.25-.468.54-.62.875-.152.335-.228.69-.228 1.064 0 .377.076.733.23 1.067.15.335.356.627.617.875.26.25.567.444.92.59.355.148.738.22 1.15.22.4 0 .78-.072 1.135-.22.355-.146.663-.344.927-.595.26-.25.47-.54.62-.872.154-.334.23-.687.23-1.064zM141.43 37.8c1.1 0 2.072.32 2.914.963v-3.908c0-.235.082-.43.244-.586.164-.153.37-.23.62-.23.24 0 .448.077.618.23.167.155.252.35.252.585v7.33c0 1.22-.453 2.256-1.36 3.1-.92.858-2.015 1.286-3.287 1.286-1.286 0-2.38-.427-3.29-1.282-.906-.858-1.36-1.89-1.36-3.103 0-1.21.454-2.243 1.36-3.1.91-.857 2.007-1.284 3.29-1.284zm13.562 1.637c-.41 0-.794.072-1.148.22-.354.146-.66.34-.92.59-.262.248-.468.54-.62.874-.152.335-.228.69-.228 1.065 0 .376.076.732.23 1.066.15.335.356.627.617.875.26.25.567.444.92.59.355.148.738.22 1.15.22.4 0 .78-.072 1.135-.22.355-.146.663-.344.927-.595.26-.25.47-.54.62-.872.154-.334.23-.687.23-1.063 0-.375-.076-.728-.23-1.062-.15-.33-.36-.62-.62-.87-.264-.252-.572-.45-.927-.597-.354-.147-.734-.22-1.136-.22zm2.913 6.32V45.6c-.417.314-.867.554-1.355.72-.487.168-1.005.25-1.558.25-1.287 0-2.38-.427-3.29-1.282-.907-.858-1.36-1.89-1.36-3.103 0-1.21.453-2.243 1.36-3.1.91-.857 2.003-1.284 3.29-1.284 1.272 0 2.366.428 3.287 1.284.906.858 1.36 1.89 1.36 3.1v3.572c0 .224-.086.417-.253.577-.17.158-.374.238-.612.238-.24 0-.448-.08-.618-.237-.167-.16-.252-.353-.252-.577zm13.074-1.67c.245 0 .452.078.616.23.162.156.244.35.244.586 0 .23-.09.43-.272.602-.86.71-1.87 1.066-3.032 1.066-1.284 0-2.38-.427-3.288-1.282-.906-.858-1.36-1.89-1.36-3.103 0-1.21.454-2.243 1.36-3.1.907-.857 2.004-1.284 3.288-1.284 1.167 0 2.18.356 3.032 1.067.198.166.298.372.298.618 0 .235-.083.43-.244.588-.165.158-.37.235-.62.235-.21 0-.398-.06-.565-.187-.28-.226-.578-.395-.887-.51-.31-.115-.65-.173-1.014-.173-.403 0-.782.072-1.137.216-.355.142-.664.34-.93.586-.266.247-.476.54-.626.873-.153.334-.23.692-.23 1.072 0 .382.077.74.23 1.074.15.333.36.625.626.873.266.246.575.444.93.586.354.143.733.215 1.136.215.365 0 .703-.056 1.014-.168.31-.112.604-.28.88-.505.155-.113.336-.17.55-.174zm7.503-7.847c0 .267-.1.494-.297.68-.198.19-.44.285-.723.285-.28 0-.52-.094-.722-.284-.198-.186-.297-.413-.297-.68 0-.265.1-.492.298-.68.202-.19.443-.283.723-.283.284 0 .525.094.723.284.198.188.297.415.297.68zm-1.88 9.508V38.62c0-.23.084-.42.25-.58.17-.16.375-.24.613-.24.235 0 .44.08.61.24.167.16.254.35.26.58v7.128c-.006.23-.093.425-.26.585-.17.158-.375.238-.61.238-.238 0-.442-.08-.612-.237-.167-.16-.252-.355-.252-.585zm15.747-3.563c0 1.22-.453 2.256-1.36 3.103-.92.855-2.015 1.283-3.287 1.283-1.287 0-2.38-.427-3.29-1.282-.907-.858-1.36-1.89-1.36-3.103 0-1.21.453-2.243 1.36-3.1.91-.857 2.003-1.284 3.29-1.284 1.272 0 2.366.428 3.287 1.284.454.43.79.9 1.015 1.42.226.515.34 1.076.345 1.68zm-4.647-2.748c-.41 0-.794.072-1.148.22-.354.146-.66.34-.92.59-.262.248-.468.54-.62.874-.152.335-.228.69-.228 1.065 0 .376.076.732.23 1.066.15.335.356.627.617.875.26.25.567.444.92.59.355.148.738.22 1.15.22.4 0 .78-.072 1.135-.22.354-.146.662-.344.926-.595.26-.25.47-.54.62-.872.154-.334.23-.687.23-1.063 0-.375-.076-.728-.23-1.062-.15-.33-.36-.62-.62-.87-.264-.252-.572-.45-.927-.597-.355-.147-.735-.22-1.137-.22zm1.794-3.994L187.837 37c-.157.148-.355.22-.6.22-.248 0-.455-.077-.617-.23-.164-.154-.246-.35-.246-.585 0-.224.073-.41.215-.556l1.66-1.56c.178-.162.382-.242.615-.242.25 0 .456.08.618.238.164.16.246.355.246.585 0 .236-.077.426-.233.573zm8.842 3.165c.736-.537 1.603-.807 2.598-.807.58 0 1.133.108 1.658.32.524.215.983.507 1.383.876.395.366.713.8.945 1.3.233.5.35 1.028.35 1.592v3.86c0 .23-.086.425-.253.585-.17.158-.374.238-.612.238-.24 0-.448-.08-.618-.237-.168-.16-.253-.355-.253-.585v-3.86c0-.334-.07-.65-.207-.946-.14-.3-.326-.56-.562-.78-.234-.223-.51-.4-.826-.53-.315-.13-.65-.195-1.003-.195-.362 0-.696.064-1.01.192-.313.127-.588.304-.826.528-.238.225-.425.484-.56.784-.137.296-.205.612-.205.946v3.86c0 .23-.086.425-.253.585-.17.158-.374.238-.612.238-.24 0-.448-.08-.618-.237-.167-.16-.252-.355-.252-.585v-7.124c0-.225.085-.42.252-.58.17-.163.377-.243.618-.243.238 0 .442.08.612.244.167.16.252.35.252.564z"/></g></svg>