<?xml version="1.0" encoding="UTF-8" standalone="no"?>
<!-- Creator: CorelDRAW X8 -->

<svg
   xmlns:dc="http://purl.org/dc/elements/1.1/"
   xmlns:cc="http://creativecommons.org/ns#"
   xmlns:rdf="http://www.w3.org/1999/02/22-rdf-syntax-ns#"
   xmlns:svg="http://www.w3.org/2000/svg"
   xmlns="http://www.w3.org/2000/svg"
   xmlns:sodipodi="http://sodipodi.sourceforge.net/DTD/sodipodi-0.dtd"
   xmlns:inkscape="http://www.inkscape.org/namespaces/inkscape"
   xml:space="preserve"
   width="19.031027mm"
   height="34.399792mm"
   version="1.1"
   style="clip-rule:evenodd;fill-rule:evenodd;image-rendering:optimizeQuality;shape-rendering:geometricPrecision;text-rendering:geometricPrecision"
   viewBox="0 0 510.82541 922.8328"
   id="svg2"
   inkscape:version="0.91 r13725"
   sodipodi:docname="trabajo.svg"><metadata
     id="metadata38"><rdf:RDF><cc:Work
         rdf:about=""><dc:format>image/svg+xml</dc:format><dc:type
           rdf:resource="http://purl.org/dc/dcmitype/StillImage" /><dc:title /></cc:Work></rdf:RDF></metadata><sodipodi:namedview
     pagecolor="#ffffff"
     bordercolor="#666666"
     borderopacity="1"
     objecttolerance="10"
     gridtolerance="10"
     guidetolerance="10"
     inkscape:pageopacity="0"
     inkscape:pageshadow="2"
     inkscape:window-width="1366"
     inkscape:window-height="705"
     id="namedview36"
     showgrid="false"
     fit-margin-top="0"
     fit-margin-left="0"
     fit-margin-right="0"
     fit-margin-bottom="0"
     inkscape:zoom="13.497845"
     inkscape:cx="26.690996"
     inkscape:cy="17.271263"
     inkscape:window-x="1280"
     inkscape:window-y="285"
     inkscape:window-maximized="1"
     inkscape:current-layer="svg2" /><defs
     id="defs4"><style
       type="text/css"
       id="style6"><![CDATA[
    .fil1 {fill:black}
    .fil0 {fill:#31A463}
    .fil2 {fill:white}
   ]]></style><clipPath
       id="id0"><path
         d="M 0,0 585,0 588,1059 3,1059 0,0 Z"
         id="path9"
         inkscape:connector-curvature="0" /></clipPath></defs><path
     style="color:#000000;font-style:normal;font-variant:normal;font-weight:normal;font-stretch:normal;font-size:medium;line-height:normal;font-family:sans-serif;text-indent:0;text-align:start;text-decoration:none;text-decoration-line:none;text-decoration-style:solid;text-decoration-color:#000000;letter-spacing:normal;word-spacing:normal;text-transform:none;direction:ltr;block-progression:tb;writing-mode:lr-tb;baseline-shift:baseline;text-anchor:start;white-space:normal;clip-rule:nonzero;display:inline;overflow:visible;visibility:visible;opacity:1;isolation:auto;mix-blend-mode:normal;color-interpolation:sRGB;color-interpolation-filters:linearRGB;solid-color:#000000;solid-opacity:1;fill:#31a463;fill-opacity:1;fill-rule:evenodd;stroke:none;stroke-width:15.15065765;stroke-linecap:round;stroke-linejoin:round;stroke-miterlimit:4;stroke-dasharray:none;stroke-dashoffset:0;stroke-opacity:1;color-rendering:auto;image-rendering:auto;shape-rendering:auto;text-rendering:auto;enable-background:accumulate"
     d="m 409.41654,571.47834 c -11.09999,0.36293 -20.64546,2.25466 -24.57544,5.29681 -11.2091,8.3792 -14.30287,21.71142 -18.33171,34.87314 L 346.93486,611.308 c -7.55622,-0.13007 -8.84858,3.04511 -11.6737,12.53185 -6.46091,48.89721 -10.93152,86.62131 -17.14806,134.13657 -0.4096,3.13081 -0.24279,11.00097 5.72589,12.33945 l 150.20457,37.66953 c 19.58877,2.19071 30.90896,-1.43749 34.45887,-10.20896 8.31882,-62.18746 -8.07168,-112.26316 -12.10277,-168.38826 -1.21799,-11.44977 -8.13978,-15.40469 -20.55104,-15.86085 l -11.6885,-0.20711 c -0.73806,-12.87739 -2.96465,-27.41011 -5.11926,-29.3396 -8.31161,-9.49235 -31.12435,-13.10717 -49.62432,-12.50225 z m 0.93212,15.23943 c 12.68973,-0.10303 29.12622,1.54425 32.49105,4.89733 2.3792,3.08296 3.4656,12.27707 4.0096,21.40918 L 384.72274,611.959 c 4.04908,-10.98256 8.21827,-22.03785 10.46046,-23.15506 1.28178,-1.33478 7.55161,-2.02437 15.16546,-2.08617 z"
     id="path4211"
     inkscape:connector-curvature="0" /><path
     style="fill:#31a463"
     d="M 23.232422,-0.00390625 C 21.715799,0.03803184 20.110543,1.2929518 19.609375,3.6621094 17.274907,11.643058 18.610521,20.593539 20.210938,27.681641 c 2.368105,10.556585 6.327104,15.648561 -0.21875,28.199218 -1.05606,2.376135 -6.202782,13.463248 -6.466797,15.44336 1.188067,0.52803 1.846389,0.396722 1.318359,1.716797 -3.674724,9.891274 -7.9257851,20.690563 -11.484375,29.966794 -1.4520821,3.82822 -4.092021,8.58021 -3.16796875,11.48438 1.86009285,4.19407 7.23646535,4.83531 9.74218755,1.57422 1.7525432,-2.3559 2.7424592,-6.25459 4.2500002,-10.02344 1.056059,-2.50814 8.05251,-20.32905 8.976562,-21.121095 0.924053,0.52803 0.925782,0.527582 0.925782,1.847656 0.168141,9.59509 -1.145061,19.421489 -1.189454,28.382809 -0.132007,5.41231 1.715663,5.28034 4.091797,6.73243 l 3.03711,0 c 3.300186,-2.50815 4.091797,-1.58518 4.091797,-8.18555 0.850488,-14.441854 1.502947,-21.346502 2.24414,-32.60547 0.396023,-1.188067 2.509317,-0.527344 4.357422,-0.527344 2.508142,0.132008 2.904297,0.660143 2.904297,-1.583984 0,-3.168179 0.130516,-5.677867 0.394531,-8.582031 0.264015,-3.300187 4.990934,-18.306879 6.707031,-19.626953 1.105305,4.495128 0.935869,18.731093 0.949219,24.460937 0.284386,-0.06964 0.58759,-0.127382 0.921875,-0.173828 0.44455,-0.06177 0.928512,-0.100689 1.433594,-0.117188 0.50508,-0.0165 1.032019,-0.0098 1.5625,0.02148 1.098004,0.06479 2.207716,0.21458 3.179687,0.515625 0.01724,-0.232449 0.04366,-0.45562 0.04102,-0.707031 -0.0094,-3.126423 -0.273094,-18.760823 -0.537109,-22.457032 -0.132008,-4.356246 -0.132946,-8.580778 -3.03711,-10.296875 -1.848104,-1.056059 -6.8641,-2.904878 -9.240234,-3.960937 l -1.320313,3.697265 -0.660156,1.583985 c -0.132007,1.452082 -1.055954,3.564348 -1.583984,5.148437 -0.52803,1.716097 -1.055955,3.168669 -1.583985,4.884766 -0.660037,1.716097 -1.054806,3.166715 -1.714843,4.882812 -0.264015,0.924053 -0.528954,1.583761 -0.792969,2.507813 -0.264015,0.660037 -0.527806,1.585251 -0.923828,2.113281 L 26.460938,58.652344 35.4375,39.642578 l 0.527344,-1.1875 c 0.52803,-1.05606 0.925214,-3.29929 2.113281,-3.695312 C 25.879557,28.191363 26.70563,12.780324 26.330078,3.6054688 26.178843,1.1248156 24.749045,-0.04584434 23.232422,-0.00390625 Z M 54.171875,78.017578 c -0.325108,0.0027 -0.628372,0.01505 -0.890625,0.03516 -0.262253,0.0201 -0.484258,0.04838 -0.630859,0.08008 -0.1466,0.03169 -0.221882,0.125375 -0.09961,-0.002 -0.02986,0.0306 -0.06331,0.05749 -0.09961,0.08008 0.02655,-0.01669 0.01399,-0.01225 -0.01758,0.03516 -0.03665,0.05504 -0.09201,0.161062 -0.148438,0.271484 1.23396,1.911926 4.034974,1.974303 5.535156,-0.121094 -0.17051,-0.05672 -0.401919,-0.115635 -0.673828,-0.164062 -0.553106,-0.09851 -1.259446,-0.164627 -1.955078,-0.195313 -0.347816,-0.01534 -0.694423,-0.02221 -1.019531,-0.01953 z"
     transform="matrix(7.5753292,0,0,7.5753292,0,-0.25831553)"
     id="path20"
     inkscape:connector-curvature="0"
     sodipodi:nodetypes="scccccccccccccccccscccssscccccccccccccccccssscccsccsss" /><path
     class="fil0"
     d="m 334.45191,115.05291 c -109,27 -68,181 36,158 38,-8 72,-46 62,-95 -7,-38 -49,-75 -98,-63 z"
     id="path24"
     inkscape:connector-curvature="0"
     style="fill:#31a463" /><path
     class="fil0"
     d="m 288.45191,294.05291 c 8,22 7,16 -8,41 -9,13 -16,24 -24,37 -5,8 -21,31 -24,38 -2,6 13,40 15,43 4,-1 31,-16 35,-19 4,-3 2,-1 4,-8 1,-4 1,-9 2,-12 l 13,-72 c 5,-25 0,-26 22,-35 l 3.74527,-8.74241 c -3.58231,-7.40586 -7.14016,-15.1408 -11.74527,-20.25759 l -26.10279,7.89154 z"
     id="path28"
     inkscape:connector-curvature="0"
     style="fill:#31a463"
     sodipodi:nodetypes="cccccscccccccc" /></svg>