<?xml version="1.0" encoding="UTF-8" standalone="no"?>
<!-- Generator: Adobe Illustrator 19.0.0, SVG Export Plug-In . SVG Version: 6.00 Build 0)  -->

<svg
   xmlns:dc="http://purl.org/dc/elements/1.1/"
   xmlns:cc="http://creativecommons.org/ns#"
   xmlns:rdf="http://www.w3.org/1999/02/22-rdf-syntax-ns#"
   xmlns:svg="http://www.w3.org/2000/svg"
   xmlns="http://www.w3.org/2000/svg"
   xmlns:sodipodi="http://sodipodi.sourceforge.net/DTD/sodipodi-0.dtd"
   xmlns:inkscape="http://www.inkscape.org/namespaces/inkscape"
   version="1.1"
   id="Capa_1"
   x="0px"
   y="0px"
   viewBox="0 0 60.015 53.000001"
   xml:space="preserve"
   inkscape:version="0.91 r13725"
   sodipodi:docname="checked.svg"
   width="60.014999"
   height="53"><metadata
     id="metadata4293"><rdf:RDF><cc:Work
         rdf:about=""><dc:format>image/svg+xml</dc:format><dc:type
           rdf:resource="http://purl.org/dc/dcmitype/StillImage" /><dc:title></dc:title></cc:Work></rdf:RDF></metadata><defs
     id="defs4291" /><sodipodi:namedview
     pagecolor="#ffffff"
     bordercolor="#666666"
     borderopacity="1"
     objecttolerance="10"
     gridtolerance="10"
     guidetolerance="10"
     inkscape:pageopacity="0"
     inkscape:pageshadow="2"
     inkscape:window-width="1366"
     inkscape:window-height="705"
     id="namedview4289"
     showgrid="false"
     showguides="false"
     inkscape:zoom="6.2327667"
     inkscape:cx="20.018769"
     inkscape:cy="22.816952"
     inkscape:window-x="1600"
     inkscape:window-y="159"
     inkscape:window-maximized="1"
     inkscape:current-layer="Capa_1"
     fit-margin-top="0"
     fit-margin-left="0"
     fit-margin-right="0"
     fit-margin-bottom="0" /><path
     style="opacity:1;fill:#2ca562;fill-opacity:1;stroke:none;stroke-width:0.85747826;stroke-linecap:round;stroke-linejoin:round;stroke-miterlimit:4;stroke-dasharray:none;stroke-opacity:1"
     d="M 49.019531,12.56672 28.414062,33.172189 a 2.0002,2.0002 0 0 1 -0.103515,0.0957 2.0002,2.0002 0 0 1 -0.15625,0.123047 2.0002,2.0002 0 0 1 -0.169922,0.107421 2.0002,2.0002 0 0 1 -0.177734,0.08984 2.0002,2.0002 0 0 1 -0.1875,0.07031 2.0002,2.0002 0 0 1 -0.19336,0.05273 2.0002,2.0002 0 0 1 -0.197265,0.0332 2.0002,2.0002 0 0 1 -0.199219,0.01367 2.0002,2.0002 0 0 1 -0.199219,-0.0078 2.0002,2.0002 0 0 1 -0.199219,-0.02734 2.0002,2.0002 0 0 1 -0.193359,-0.04687 2.0002,2.0002 0 0 1 -0.189453,-0.06445 2.0002,2.0002 0 0 1 -0.181641,-0.08398 2.0002,2.0002 0 0 1 -0.171875,-0.103515 2.0002,2.0002 0 0 1 -0.160156,-0.117188 2.0002,2.0002 0 0 1 -0.148437,-0.134765 l -11.65625,-11.65625 c -0.310851,-0.310851 -1.103212,-0.310851 -1.414063,0 -0.198699,0.198703 -0.292969,0.427046 -0.292969,0.707031 0,0.279984 0.09427,0.508327 0.292969,0.707031 l 13.777344,13.775391 c 0.198704,0.198701 0.427046,0.294921 0.707031,0.294921 0.279985,0 0.508327,-0.09622 0.707031,-0.294921 l 22.34375,-22.341797 a 26.5,26.5 0 0 0 -1.03125,-1.796875 z"
     id="path4306"
     inkscape:connector-curvature="0" /><path
     style="opacity:1;fill:#2ca562;fill-opacity:1;stroke:none;stroke-width:0.85747826;stroke-linecap:round;stroke-linejoin:round;stroke-miterlimit:4;stroke-dasharray:none;stroke-opacity:1"
     d="M 26.5,0 A 26.5,26.5 0 0 0 0,26.500001 a 26.5,26.5 0 0 0 26.5,26.5 26.5,26.5 0 0 0 26.5,-26.5 26.5,26.5 0 0 0 -1.308594,-8.121093 l -21.15625,21.15625 c -0.466647,0.466647 -1.019218,0.832482 -1.621094,1.082031 -0.601875,0.249549 -1.253054,0.382813 -1.914062,0.382812 -0.661007,1e-6 -1.312187,-0.133263 -1.914062,-0.382812 -0.601876,-0.249549 -1.154447,-0.615384 -1.621094,-1.082031 L 9.6875004,25.757814 C 9.220852,25.291166 8.855018,24.738595 8.605469,24.13672 8.35592,23.534845 8.222656,22.883665 8.222656,22.222658 c 0,-0.661008 0.133264,-1.312188 0.382813,-1.914063 0.249549,-0.601875 0.615383,-1.154446 1.0820314,-1.621094 0.4887866,-0.488787 1.0525536,-0.855215 1.6542966,-1.099609 0.601743,-0.244394 1.241464,-0.367187 1.880859,-0.367187 0.639396,0 1.279116,0.122793 1.88086,0.367187 0.601743,0.244394 1.165509,0.610822 1.654296,1.099609 L 27,28.929689 46.623047,9.3066416 A 26.5,26.5 0 0 0 26.5,0 Z"
     id="path4295"
     inkscape:connector-curvature="0" /><g
     id="g4259"
     transform="translate(0,-3.5074994)" /><g
     id="g4261"
     transform="translate(0,-3.5074994)" /><g
     id="g4263"
     transform="translate(0,-3.5074994)" /><g
     id="g4265"
     transform="translate(0,-3.5074994)" /><g
     id="g4267"
     transform="translate(0,-3.5074994)" /><g
     id="g4269"
     transform="translate(0,-3.5074994)" /><g
     id="g4271"
     transform="translate(0,-3.5074994)" /><g
     id="g4273"
     transform="translate(0,-3.5074994)" /><g
     id="g4275"
     transform="translate(0,-3.5074994)" /><g
     id="g4277"
     transform="translate(0,-3.5074994)" /><g
     id="g4279"
     transform="translate(0,-3.5074994)" /><g
     id="g4281"
     transform="translate(0,-3.5074994)" /><g
     id="g4283"
     transform="translate(0,-3.5074994)" /><g
     id="g4285"
     transform="translate(0,-3.5074994)" /><g
     id="g4287"
     transform="translate(0,-3.5074994)" /><path
     style="fill:#ffffff;stroke:none;stroke-width:3;stroke-linecap:round;stroke-linejoin:round;stroke-miterlimit:4;stroke-dasharray:none"
     d="m 59.136,3.8645006 c -1.133,-1.133 -3.109,-1.133 -4.242,0 L 27,31.757501 15.344,20.101501 c -1.133,-1.133 -3.109,-1.133 -4.242,0 -0.566,0.566 -0.879,1.32 -0.879,2.121 0,0.801 0.313,1.555 0.879,2.121 l 13.777,13.777 c 0.566,0.566 1.32,0.879 2.121,0.879 0.801,0 1.555,-0.313 2.121,-0.879 L 59.136,8.1055006 c 0.566,-0.566 0.879,-1.32 0.879,-2.121 0,-0.801 -0.313,-1.554 -0.879,-2.12 z"
     id="path4299"
     inkscape:connector-curvature="0" /></svg>