<?xml version="1.0" encoding="UTF-8" standalone="no"?>
<svg
   xmlns:dc="http://purl.org/dc/elements/1.1/"
   xmlns:cc="http://creativecommons.org/ns#"
   xmlns:rdf="http://www.w3.org/1999/02/22-rdf-syntax-ns#"
   xmlns:svg="http://www.w3.org/2000/svg"
   xmlns="http://www.w3.org/2000/svg"
   xmlns:sodipodi="http://sodipodi.sourceforge.net/DTD/sodipodi-0.dtd"
   xmlns:inkscape="http://www.inkscape.org/namespaces/inkscape"
   viewBox="0 0 250 250"
   version="1.1"
   id="svg8"
   sodipodi:docname="favicon.svg"
   width="250"
   height="250"
   inkscape:version="0.92.4 (unknown)">
  <metadata
     id="metadata14">
    <rdf:RDF>
      <cc:Work
         rdf:about="">
        <dc:format>image/svg+xml</dc:format>
        <dc:type
           rdf:resource="http://purl.org/dc/dcmitype/StillImage" />
        <dc:title></dc:title>
      </cc:Work>
    </rdf:RDF>
  </metadata>
  <defs
     id="defs12" />
  <sodipodi:namedview
     pagecolor="#ffffff"
     bordercolor="#666666"
     borderopacity="1"
     objecttolerance="10"
     gridtolerance="10"
     guidetolerance="10"
     inkscape:pageopacity="0"
     inkscape:pageshadow="2"
     inkscape:window-width="1366"
     inkscape:window-height="705"
     id="namedview10"
     showgrid="false"
     fit-margin-top="0"
     fit-margin-left="0"
     fit-margin-right="0"
     fit-margin-bottom="0"
     inkscape:zoom="1.076"
     inkscape:cx="314.33701"
     inkscape:cy="53.186312"
     inkscape:window-x="1600"
     inkscape:window-y="159"
     inkscape:window-maximized="1"
     inkscape:current-layer="svg8" />
  <circle
     style="opacity:1;fill:#ffffff;fill-opacity:1;stroke:none;stroke-width:2;stroke-linecap:round;stroke-linejoin:round;stroke-miterlimit:4;stroke-dasharray:none;stroke-dashoffset:0;stroke-opacity:1"
     id="path871"
     cx="125"
     cy="125"
     r="125" />
  <g
     id="g850"
     transform="translate(0,-0.48320753)">
    <path
       style="fill:#42266a;stroke-width:1"
       inkscape:connector-curvature="0"
       id="path2"
       d="m 244.29392,132.50454 c -3.36179,2.67483 -12.68904,9.7811 -16.10071,9.5216 -1.57616,-0.12975 -2.6635,0 -2.39416,-7.5554 a 33.607997,33.625008 0 0 0 -0.11971,-4.5512 c -0.21946,-2.69479 -1.07737,-5.54927 -3.74087,-5.33968 -4.10997,0.32936 -4.1399,3.12396 -3.91046,6.28785 0.59854,8.28399 -0.75815,14.57183 -6.26471,20.95949 -12.96836,15.04092 -31.26372,28.44502 -41.61845,35.50138 -1.73577,1.17772 -6.10511,3.24373 -8.70875,2.93433 1.71581,-1.73665 12.24013,-10.97878 16.7192,-15.56991 5.88564,-6.08823 10.30486,-11.71735 10.49439,-16.50809 0.25937,-6.52739 -3.46155,-9.28206 -6.98296,-13.03481 -5.98539,-6.34773 -3.09245,-18.64396 1.72579,-21.25891 a 87.107458,87.15155 0 0 1 11.7613,-4.89055 c 1.99514,-0.69865 4.1399,-2.49517 3.19222,-5.31971 -0.6983,-1.99615 -2.79319,-3.13395 -5.74598,-1.99615 -0.99757,0.37927 -1.99514,0.7286 -3.04258,1.07792 a 36.141814,36.160108 0 0 1 -42.3367,-15.020963 c -3.8506,-6.18804 -7.38199,-10.918896 -14.3849,-15.889289 3.7309,0.469094 5.52652,0.159692 14.09561,3.543152 2.9927,1.167743 4.75839,0.648746 5.44671,-1.656798 0.99756,-3.293634 -4.61873,-5.329698 -7.34209,-6.357711 -2.32433,-0.868322 -15.96105,-5.130085 -36.24157,5.549274 -6.46423,3.393441 -11.21264,6.188039 -18.325285,5.160026 -2.843063,-0.419189 -6.534057,-4.151975 -2.813136,-7.88476 C 108.77459,59.146335 116.12665,51.081923 140.86629,55.812779 a 141.65436,141.72607 0 0 1 23.83185,6.647152 c 4.44914,1.756605 13.11799,5.788811 24.6698,8.31393 16.43989,3.593056 22.26567,-0.379267 31.50313,-5.189968 6.58394,-3.413403 2.2146,-8.383796 -2.57372,-5.988426 -12.46957,6.158098 -16.7591,7.186111 -28.3608,4.521262 -4.31946,-0.998071 -15.96105,-5.609159 -19.45253,-7.046381 -4.51897,-1.846431 -24.41044,-9.481673 -39.76298,-9.980709 -13.24767,-0.41919 -18.1557,1.676759 -38.685606,17.73572 a 31.333546,31.349407 0 0 1 -14.235266,5.878637 c -20.948885,1.926277 -49.199953,-0.998071 -52.043015,-1.377337 -5.825786,-0.718611 -8.648897,6.76692 1.596105,7.984567 13.487092,1.626855 43.394118,1.856412 45.289494,1.896334 2.942819,0.07985 5.626272,0.728592 5.187343,3.123962 -1.177128,6.347731 2.932844,10.180323 8.080284,12.625597 6.603886,3.143923 17.397551,2.066007 27.393161,-3.433364 8.97809,-4.93047 11.52189,-6.088232 18.63453,1.177724 2.85304,2.924348 4.38929,4.990354 5.33698,7.056361 -4.40924,1.37733 -8.15011,4.99035 -11.17274,7.56537 -2.32433,1.99615 -5.63625,6.16808 -9.57663,8.92276 -2.34428,-8.28399 -11.20267,-13.37415 -22.395358,-7.05636 -4.518974,2.54508 -18.524799,16.0889 -22.944017,20.53032 -5.865687,5.84869 -4.748413,13.75341 0.997566,19.7618 5.436735,5.689 9.726268,6.13813 16.539644,9.8809 6.603886,3.61302 13.965925,9.48167 17.816525,15.15072 4.18978,6.22796 5.86569,9.22217 3.41168,13.97299 -0.6983,1.36736 -4.51898,2.99421 -6.92311,1.29749 C 89.2622,179.87299 76.742748,175.81084 60.961255,170.48114 46.44667,165.59059 33.029408,158.80371 23.273213,146.65719 c -5.416783,-6.727 -8.898288,-20.51036 -17.1581338,-22.4566 -4.3892901,-1.04797 -0.1596105,1.75661 -1.0973225,1.59692 -5.08758632,-0.91823 -8.1600894,5.72892 0.438929,7.43562 6.4243243,1.27754 4.7484143,10.49971 9.1776063,16.04898 14.145485,17.72574 32.201429,26.00973 53.070508,32.53712 12.968358,4.06214 19.482463,7.35578 30.605323,15.5699 6.224807,4.61109 14.265197,1.79653 17.806557,-0.91822 a 15.133075,15.140735 0 0 0 4.33941,-5.70897 c 0.99756,-2.65487 3.59123,-3.77271 6.8832,0.6188 1.99513,2.64489 5.2871,6.44754 8.75863,8.08438 a 33.388532,33.405433 0 0 0 14.48466,2.87444 c 7.80096,-0.15969 16.01093,-2.09595 22.18587,-5.6391 16.16056,-9.312 30.92454,-20.46045 43.27441,-34.51329 5.72602,-6.5174 27.73233,-18.3645 31.98196,-23.9537 3.04258,-4.02223 -0.33917,-8.44368 -3.69099,-5.74889 z M 88.673636,145.9785 a 6.2148358,6.2179816 0 0 1 -8.758629,0.10979 c -2.992697,-2.5351 -4.987829,-7.246 -2.543793,-9.58148 3.990264,-3.86254 8.279798,-8.32391 9.776147,-9.75116 1.895375,-1.82647 7.72116,-8.58341 11.731375,-10.97878 3.192214,-1.87637 10.175174,0.0499 10.614104,5.98843 a 6.5240812,6.5273836 0 0 1 -2.18467,5.98843 c -6.00535,5.90858 -12.010696,12.37607 -18.584655,18.21479 z m 21.108494,13.32425 c -3.22214,3.09402 -8.10023,0.99807 -10.54427,-2.7447 -1.197079,-1.83645 -2.334305,-4.64103 -0.06983,-7.40568 3.54136,-4.35159 26.33574,-26.28919 35.21408,-34.53326 1.86545,-1.72666 4.31946,-4.99035 7.5815,-4.91051 3.99026,0.13973 7.85084,2.37541 7.88077,7.70511 0,3.72281 -4.30949,6.9865 -6.85328,9.35193 -11.41215,10.52964 -21.98635,21.81782 -33.17904,32.53711 z m 20.11093,15.96913 c -2.37421,2.45525 -7.78101,3.77271 -11.21264,-0.17965 -3.26204,-3.76273 -4.25961,-7.25598 -0.19951,-11.12849 L 153.79474,129.68 c 2.2944,-2.13587 4.24963,-4.51128 7.31216,-5.38958 3.89051,-1.09788 9.27736,3.49325 9.31727,7.28592 0,1.67676 0.15961,3.91243 -2.15475,6.18804 l -38.34643,37.52746 z m 18.69439,15.04093 c -3.16229,3.23375 -6.98296,2.51514 -9.57664,0.41919 -3.57128,-2.91437 -3.99026,-7.74503 -1.69586,-10.04059 l 30.22625,-29.52294 c 1.49635,-1.46717 5.10754,-1.9163 7.34208,-0.89827 a 6.6038865,6.6072293 0 0 1 3.91046,4.13202 c 1.87543,4.77078 -0.89781,7.0863 -3.41167,9.72121 -8.95814,9.48167 -17.58709,16.81749 -26.73477,26.1794 z" />
    <path
       inkscape:connector-curvature="0"
       id="path818"
       d="m 76.822553,152.03679 25.916767,13.31427 -35.712864,-25.09151 9.806073,11.77724 z"
       style="fill:#42266a;stroke-width:1" />
    <path
       inkscape:connector-curvature="0"
       id="path816"
       d="m 32.959579,77.860165 c 18.953753,0.678688 48.601412,-2.135872 48.601412,-2.135872 0,0 31.273689,-24.951772 39.802879,-25.051579 8.52919,-0.09981 89.36196,19.801726 89.36196,19.801726 L 231.72459,60.354001 A 125.04489,125.10819 0 0 0 10.085392,76.323135 c 7.362036,0.668708 15.562028,1.277531 22.884162,1.54701 z"
       style="fill:#42266a;stroke-width:1" />
    <path
       inkscape:connector-curvature="0"
       id="path6"
       d="m 176.3098,189.89362 -29.82722,6.18804 -38.74546,-27.21739 6.48418,23.27501 -15.601931,1.99614 -34.216512,-16.11884 -49.130122,-29.04387 c 0,0 -1.466422,-22.17713 -9.2075341,-24.7821 L 0.07980528,122.01482 0,126.47619 a 125.00499,125.06826 0 0 0 250,0.10979 z"
       style="fill:#42266a;stroke-width:1" />
  </g>
</svg>
