<?xml version="1.0" encoding="UTF-8" standalone="no"?>
<svg
   xmlns:dc="http://purl.org/dc/elements/1.1/"
   xmlns:cc="http://creativecommons.org/ns#"
   xmlns:rdf="http://www.w3.org/1999/02/22-rdf-syntax-ns#"
   xmlns:svg="http://www.w3.org/2000/svg"
   xmlns="http://www.w3.org/2000/svg"
   xmlns:sodipodi="http://sodipodi.sourceforge.net/DTD/sodipodi-0.dtd"
   xmlns:inkscape="http://www.inkscape.org/namespaces/inkscape"
   viewBox="0 0 960.51672 250.48346"
   version="1.1"
   id="svg8"
   sodipodi:docname="Logotipo Por La Inclusión_Mesa de trabajo 1_Mesa de trabajo 1 (1).svg"
   width="960.51672"
   height="250.48346"
   inkscape:version="0.92.4 (unknown)">
  <metadata
     id="metadata14">
    <rdf:RDF>
      <cc:Work
         rdf:about="">
        <dc:format>image/svg+xml</dc:format>
        <dc:type
           rdf:resource="http://purl.org/dc/dcmitype/StillImage" />
        <dc:title></dc:title>
      </cc:Work>
    </rdf:RDF>
  </metadata>
  <defs
     id="defs12" />
  <sodipodi:namedview
     pagecolor="#ffffff"
     bordercolor="#666666"
     borderopacity="1"
     objecttolerance="10"
     gridtolerance="10"
     guidetolerance="10"
     inkscape:pageopacity="0"
     inkscape:pageshadow="2"
     inkscape:window-width="1600"
     inkscape:window-height="867"
     id="namedview10"
     showgrid="false"
     fit-margin-top="0"
     fit-margin-left="0"
     fit-margin-right="0"
     fit-margin-bottom="0"
     inkscape:zoom="0.59794277"
     inkscape:cx="381.10489"
     inkscape:cy="144.94437"
     inkscape:window-x="0"
     inkscape:window-y="0"
     inkscape:window-maximized="1"
     inkscape:current-layer="svg8" />
  <path
     d="m 244.89,132.27651 c -3.37,2.68 -12.72,9.8 -16.14,9.54 -1.58,-0.13 -2.67,0 -2.4,-7.57 a 33.69,33.69 0 0 0 -0.12,-4.56 c -0.22,-2.7 -1.08,-5.56 -3.75,-5.35 -4.12,0.33 -4.15,3.13 -3.92,6.3 0.6,8.3 -0.76,14.6 -6.28,21 -13,15.07 -31.34,28.5 -41.72,35.57 -1.74,1.18 -6.12,3.25 -8.73,2.94 1.72,-1.74 12.27,-11 16.76,-15.6 5.9,-6.1 10.33,-11.74 10.52,-16.54 0.26,-6.54 -3.47,-9.3 -7,-13.06 -6,-6.36 -3.1,-18.68 1.73,-21.3 a 87.32,87.32 0 0 1 11.79,-4.9 c 2,-0.7 4.15,-2.5 3.2,-5.33 -0.7,-2 -2.8,-3.14 -5.76,-2 -1,0.38 -2,0.73 -3.05,1.08 A 36.23,36.23 0 0 1 147.58,97.446513 c -3.86,-6.2 -7.4,-10.94 -14.42,-15.92 3.74,0.47 5.54,0.16 14.13,3.55 3,1.17 4.77,0.65 5.46,-1.66 1,-3.3 -4.63,-5.34 -7.36,-6.37 -2.33,-0.87 -16,-5.14 -36.33,5.56 -6.48,3.4 -11.24,6.2 -18.37,5.17 -2.85,-0.42 -6.55,-4.16 -2.82,-7.9 21.17,-21.1 28.54,-29.18 53.34,-24.44 a 142,142 0 0 1 23.89,6.66 c 4.46,1.76 13.15,5.8 24.73,8.33 16.48,3.6 22.32,-0.38 31.58,-5.2 6.6,-3.42 2.22,-8.4 -2.58,-6 -12.5,6.17 -16.8,7.2 -28.43,4.53 -4.33,-1 -16,-5.62 -19.5,-7.06 -4.53,-1.85 -24.47,-9.5 -39.86,-10 -13.28,-0.42 -18.2,1.68 -38.78,17.77 a 31.41,31.41 0 0 1 -14.27,5.89 c -21,1.93 -49.32,-1 -52.17,-1.38 -5.84,-0.72 -8.67,6.78 1.6,8 13.52,1.63 43.5,1.86 45.4,1.9 2.95,0.08 5.64,0.73 5.2,3.13 -1.18,6.36 2.94,10.2 8.1,12.65 6.62,3.15 17.44,2.07 27.46,-3.44 9,-4.94 11.55,-6.1 18.68,1.18 2.86,2.93 4.4,5 5.35,7.07 -4.42,1.379997 -8.17,4.999997 -11.2,7.579997 -2.33,2 -5.65,6.18 -9.6,8.94 -2.35,-8.3 -11.23,-13.4 -22.45,-7.07 -4.53,2.55 -18.57,16.12 -23,20.57 -5.88,5.86 -4.76,13.78 1,19.8 5.45,5.7 9.75,6.15 16.58,9.9 6.62,3.62 14,9.5 17.86,15.18 4.2,6.24 5.88,9.24 3.42,14 -0.7,1.37 -4.53,3 -6.94,1.3 -13.8,-9.93 -26.35,-14 -42.17,-19.34 -14.55,-4.9 -28,-11.7 -37.78,-23.87 -5.43,-6.74 -8.92,-20.55 -17.2,-22.5 -4.4,-1.05 -0.16,1.76 -1.1,1.6 -5.1,-0.92 -8.18,5.74 0.44,7.45 6.44,1.28 4.76,10.52 9.2,16.08 14.18,17.76 32.28,26.06 53.2,32.6 13,4.07 19.53,7.37 30.68,15.6 6.24,4.62 14.3,1.8 17.85,-0.92 a 15.17,15.17 0 0 0 4.35,-5.72 c 1,-2.66 3.6,-3.78 6.9,0.62 2,2.65 5.3,6.46 8.78,8.1 a 33.47,33.47 0 0 0 14.52,2.88 c 7.82,-0.16 16.05,-2.1 22.24,-5.65 16.2,-9.33 31,-20.5 43.38,-34.58 5.74,-6.53 27.8,-18.4 32.06,-24 3.05,-4.03 -0.34,-8.46 -3.7,-5.76 z m -156,13.5 a 6.23,6.23 0 0 1 -8.78,0.11 c -3,-2.54 -5,-7.26 -2.55,-9.6 4,-3.87 8.3,-8.34 9.8,-9.77 1.9,-1.83 7.74,-8.6 11.76,-11 3.2,-1.88 10.2,0.05 10.64,6 a 6.54,6.54 0 0 1 -2.19,6 c -6.02,5.92 -12.04,12.4 -18.63,18.25 z m 21.16,13.35 c -3.23,3.1 -8.12,1 -10.57,-2.75 -1.2,-1.84 -2.34,-4.65 -0.07,-7.42 3.55,-4.36 26.4,-26.34 35.3,-34.6 1.87,-1.73 4.33,-5 7.6,-4.92 4,0.14 7.87,2.38 7.9,7.72 0,3.73 -4.32,7 -6.87,9.37 -11.44,10.55 -22.04,21.86 -33.26,32.6 z m 20.16,16 c -2.38,2.46 -7.8,3.78 -11.24,-0.18 -3.27,-3.77 -4.27,-7.27 -0.2,-11.15 l 35.4,-34.35 c 2.3,-2.14 4.26,-4.52 7.33,-5.4 3.9,-1.1 9.3,3.5 9.34,7.3 0,1.68 0.16,3.92 -2.16,6.2 l -38.44,37.6 z m 18.74,15.07 c -3.17,3.24 -7,2.52 -9.6,0.42 -3.58,-2.92 -4,-7.76 -1.7,-10.06 l 30.3,-29.58 c 1.5,-1.47 5.12,-1.92 7.36,-0.9 a 6.62,6.62 0 0 1 3.92,4.14 c 1.88,4.78 -0.9,7.1 -3.42,9.74 -8.98,9.5 -17.63,16.85 -26.8,26.23 z"
     id="path2"
     inkscape:connector-curvature="0"
     style="fill:#42266a" />
  <path
     d="m 333.52,183.17651 c 0.06,7.95 -5.6,12.9 -14.8,13 l -7.9,0.06 0.08,10.43 -6.5,0.05 -0.26,-36.14 14.4,-0.1 c 9.2,-0.1 14.96,4.7 15,12.7 z m -6.55,0.05 c 0,-4.54 -3,-7.15 -8.7,-7.1 l -7.6,0.06 0.1,14.35 7.6,-0.06 c 5.7,-0.04 8.64,-2.7 8.6,-7.24 z m 15.34,5.1 c -0.08,-10.7 7.87,-18.64 18.72,-18.72 10.85,-0.08 18.92,7.7 19,18.44 0.08,10.74 -7.86,18.64 -18.72,18.72 -10.86,0.08 -18.92,-7.76 -19,-18.44 z m 31.17,-0.23 c -0.05,-7.4 -5.35,-12.66 -12.4,-12.6 -7.05,0.06 -12.27,5.38 -12.2,12.8 0.07,7.42 5.34,12.66 12.4,12.6 7.06,-0.06 12.27,-5.4 12.2,-12.8 z m 40.76,17.78 -7.24,-10.53 a 10.17,10.17 0 0 1 -1.35,0.06 l -7.9,0.06 0.08,10.53 -6.5,0.05 -0.27,-36.17 14.4,-0.1 c 9.2,-0.07 15,4.74 15,12.74 0,5.47 -2.63,9.52 -7.37,11.47 l 8.14,11.8 z m -9,-30.4 -7.6,0.06 0.1,14.4 7.6,-0.06 c 5.7,0 8.64,-2.75 8.6,-7.3 -0.04,-4.55 -3.04,-7.16 -8.75,-7.12 z m 44.7,-6 h 6.5 l 0.23,30.4 18.3,-0.14 v 5.68 l -24.82,0.18 z m 57.4,27.33 -17.5,0.13 -3.34,8.4 -6.7,0.05 15.5,-36.25 6.4,-0.05 16.08,36 h -6.8 z m -2.2,-5.25 -6.72,-15.74 -6.44,15.84 z m 39.05,-22.78 6.5,-0.05 0.27,36.13 -6.5,0.03 z m 51.3,-0.4 0.27,36.14 h -5.35 l -19.5,-24.33 0.18,24.47 -6.46,0.05 -0.27,-36.13 h 5.36 l 19.53,24.3 -0.18,-24.47 z m 11.33,18 c -0.08,-10.8 7.87,-18.64 18.63,-18.72 5.7,0 10.62,2 13.9,5.93 l -4.17,4.1 a 12.12,12.12 0 0 0 -9.39,-4.16 c -7.25,0.05 -12.47,5.35 -12.4,12.8 0.07,7.45 5.35,12.66 12.6,12.6 a 12,12 0 0 0 9.32,-4.35 l 4.24,4.1 c -3.22,3.95 -8.1,6.1 -13.87,6.14 -10.7,0.07 -18.77,-7.65 -18.85,-18.44 z m 43,-18.4 6.5,-0.05 0.22,30.46 18.32,-0.14 v 5.68 l -24.82,0.18 z m 33.58,20.14 -0.15,-20.4 6.5,-0.05 0.15,20.13 c 0.05,7.44 3.33,10.6 9,10.57 5.67,-0.03 8.83,-3.27 8.78,-10.7 l -0.18,-20.13 6.4,-0.05 0.15,20.4 c 0.08,10.53 -5.63,16.3 -15.18,16.38 -9.55,0.08 -15.37,-5.62 -15.48,-16.15 z m 41.15,11.62 2.22,-5.23 a 19,19 0 0 0 11.58,3.89 c 5.46,0 7.74,-2.07 7.72,-4.76 -0.05,-7.8 -20.83,-2.53 -20.93,-15.95 0,-5.83 4.42,-10.82 14,-10.9 a 21.66,21.66 0 0 1 11.71,3.08 l -2,5.23 a 19,19 0 0 0 -9.68,-2.77 c -5.4,0 -7.6,2.23 -7.57,5 0.06,7.7 20.8,2.53 20.9,15.8 0,5.78 -4.48,10.77 -14.08,10.84 -5.47,0.03 -10.9,-1.68 -13.86,-4.24 z m 38.45,-32.6 6.5,-0.05 0.27,36.13 -6.5,0.05 z m 17.83,17.94 c -0.08,-10.68 7.87,-18.64 18.72,-18.72 10.85,-0.08 18.92,7.7 19,18.44 0.08,10.74 -7.86,18.64 -18.72,18.72 -10.86,0.08 -18.92,-7.75 -19,-18.44 z m 31.17,-0.2 c 0,-7.38 -5.35,-12.66 -12.4,-12.6 -7.05,0.06 -12.27,5.4 -12.22,12.8 0.05,7.4 5.35,12.66 12.4,12.6 7.05,-0.06 12.26,-5.45 12.2,-12.8 z m -10,-28 7.35,-0.05 -8.6,7.05 h -5.4 z m 58.7,9.53 0.27,36.13 h -5.35 l -19.5,-24.32 0.18,24.47 h -6.45 l -0.27,-36.13 h 5.35 l 19.5,24.32 -0.18,-24.46 z"
     id="path4"
     inkscape:connector-curvature="0"
     style="fill:#288b63" />
  <path
     d="m 369.65,120.87651 -0.42,-43.679997 a 0.38,0.38 0 0 0 -0.71,-0.18 l -20.55,36.199997 a 0.4,0.4 0 0 1 -0.33,0.19 l -7.23,0.05 a 0.39,0.39 0 0 1 -0.33,-0.18 l -21,-34.939997 a 0.38,0.38 0 0 0 -0.7,0.2 l 0.32,42.719997 a 0.37,0.37 0 0 1 -0.37,0.37 l -15.2,0.12 a 0.38,0.38 0 0 1 -0.38,-0.38 l -0.56,-74.999997 a 0.38,0.38 0 0 1 0.37,-0.38 l 13.48,-0.1 a 0.39,0.39 0 0 1 0.33,0.18 l 27.42,46.12 a 0.38,0.38 0 0 0 0.65,0 l 26.32,-46.5 a 0.37,0.37 0 0 1 0.32,-0.19 l 13.38,-0.1 a 0.37,0.37 0 0 1 0.38,0.37 l 0.76,74.999997 a 0.38,0.38 0 0 1 -0.37,0.38 l -15.2,0.1 a 0.38,0.38 0 0 1 -0.36,-0.37 z m 79.16,-16.45 -33.62,0.25 a 0.38,0.38 0 0 0 -0.35,0.24 l -6.2,15.8 a 0.38,0.38 0 0 1 -0.35,0.23 l -16.6,0.13 a 0.38,0.38 0 0 1 -0.35,-0.52 l 31.88,-75.239997 a 0.39,0.39 0 0 1 0.35,-0.22 l 16.3,-0.13 a 0.37,0.37 0 0 1 0.34,0.23 l 33.1,74.739997 a 0.38,0.38 0 0 1 -0.34,0.53 l -17,0.13 a 0.37,0.37 0 0 1 -0.35,-0.23 l -6.44,-15.72 a 0.38,0.38 0 0 0 -0.37,-0.23 z m -5.4,-13.779997 -11.3,-27.54 a 0.38,0.38 0 0 0 -0.7,0 l -10.94,27.71 a 0.37,0.37 0 0 0 0.35,0.51 l 22.2,-0.16 a 0.38,0.38 0 0 0 0.38,-0.52 z m 84.83,29.429997 a 0.37,0.37 0 0 1 -0.31,-0.16 L 513.7,99.086513 h -0.84 l -14.43,0.1 a 0.37,0.37 0 0 0 -0.37,0.38 l 0.15,20.349997 a 0.37,0.37 0 0 1 -0.37,0.38 l -16.26,0.12 a 0.38,0.38 0 0 1 -0.38,-0.38 l -0.56,-74.999997 a 0.38,0.38 0 0 1 0.37,-0.38 l 31.45,-0.24 c 19.63,-0.14 32,10.26 32.13,27.25 0.08,11.2 -5.27,19.5 -14.55,23.84 a 0.36,0.36 0 0 0 -0.15,0.54 l 16,23.279997 a 0.38,0.38 0 0 1 -0.31,0.59 z m -16.62,-61.339997 -13.5,0.1 a 0.37,0.37 0 0 0 -0.37,0.38 l 0.2,25.65 a 0.37,0.37 0 0 0 0.38,0.37 l 13.5,-0.1 c 10.4,-0.07 15.6,-5.1 15.54,-13.3 -0.06,-8.2 -5.34,-13.17 -15.74,-13.1 z m 73.02,31.47 -9.4,10.249997 a 0.4,0.4 0 0 0 -0.1,0.26 l 0.14,18.62 a 0.38,0.38 0 0 1 -0.37,0.38 l -16.16,0.12 a 0.37,0.37 0 0 1 -0.38,-0.37 l -0.56,-74.999997 a 0.38,0.38 0 0 1 0.38,-0.38 l 16.15,-0.12 a 0.38,0.38 0 0 1 0.38,0.38 l 0.25,34 a 0.38,0.38 0 0 0 0.66,0.25 l 31.54,-34.72 a 0.36,0.36 0 0 1 0.28,-0.12 l 17.9,-0.14 a 0.38,0.38 0 0 1 0.28,0.63 l -29.46,33.13 a 0.36,0.36 0 0 0 0,0.48 l 31.9,40.899997 a 0.38,0.38 0 0 1 -0.3,0.61 l -18.9,0.14 a 0.39,0.39 0 0 1 -0.3,-0.14 L 585.22,90.266513 a 0.38,0.38 0 0 0 -0.58,-0.04 z m 43.9,-8.76 c -0.17,-22.5 16.72,-39.3 39.93,-39.47 23.21,-0.17 40.34,16.26 40.5,38.87 0.16,22.609997 -16.83,39.299997 -39.93,39.469997 -23.1,0.17 -40.35,-16.36 -40.5,-38.869997 z m 63.22,-0.47 c -0.1,-14.4 -10.06,-24.17 -23.18,-24.07 -13.12,0.1 -22.93,10 -22.82,24.4 0.11,14.4 10.05,24.159997 23.18,24.069997 13.13,-0.09 22.92,-10.019997 22.82,-24.399997 z m 93.71,-11.1 c 0.12,16.88 -12.1,27.47 -31.73,27.62 l -14.43,0.1 a 0.38,0.38 0 0 0 -0.37,0.38 l 0.15,20.129997 a 0.38,0.38 0 0 1 -0.37,0.38 l -16.26,0.12 a 0.37,0.37 0 0 1 -0.38,-0.37 l -0.56,-74.999997 a 0.37,0.37 0 0 1 0.37,-0.38 l 31.45,-0.23 c 19.62,-0.13 32,10.25 32.13,27.25 z m -17.23,0.13 c -0.06,-8.33 -5.35,-13.16 -15.74,-13.08 l -13.5,0.1 a 0.37,0.37 0 0 0 -0.37,0.38 l 0.2,25.54 a 0.37,0.37 0 0 0 0.38,0.37 l 13.48,-0.1 c 10.4,-0.07 15.6,-4.98 15.54,-13.2 z m 42.03,-13.5 -22.8,0.17 a 0.38,0.38 0 0 1 -0.38,-0.38 l -0.1,-13.53 a 0.38,0.38 0 0 1 0.37,-0.38 l 63.3,-0.47 a 0.38,0.38 0 0 1 0.38,0.38 l 0.1,13.53 a 0.38,0.38 0 0 1 -0.37,0.37 l -22.78,0.17 a 0.38,0.38 0 0 0 -0.37,0.38 l 0.45,60.699997 a 0.37,0.37 0 0 1 -0.37,0.38 l -16.26,0.12 a 0.38,0.38 0 0 1 -0.38,-0.37 l -0.4,-60.699997 a 0.37,0.37 0 0 0 -0.38,-0.37 z m 50.32,-14.63 16.26,-0.12 a 0.38,0.38 0 0 1 0.38,0.37 l 0.56,74.999997 a 0.38,0.38 0 0 1 -0.38,0.38 l -16.26,0.12 a 0.38,0.38 0 0 1 -0.38,-0.37 l -0.56,-74.999997 a 0.38,0.38 0 0 1 0.38,-0.38 z m 29.72,37.62 c -0.17,-22.83 16.72,-39.3 39.62,-39.47 12.57,-0.1 23.12,4.5 30.1,12.92 a 0.38,0.38 0 0 1 0,0.52 l -10.3,9.95 a 0.36,0.36 0 0 1 -0.53,0 c -4.94,-5.6 -11.07,-8.5 -18.3,-8.44 -13.76,0.1 -23.45,10.13 -23.34,24.4 0.11,14.27 9.94,24.159997 23.7,24.059997 7.22,-0.05 13.3,-3 18.16,-8.799997 a 0.38,0.38 0 0 1 0.54,0 l 10.45,9.799997 a 0.37,0.37 0 0 1 0,0.52 c -6.87,8.64 -17.35,13.38 -30,13.47 -22.8,0.1 -39.95,-16.1 -40.1,-38.929997 z m -813.3,72.349997 25.98,13.34 -35.8,-25.14 9.83,11.8 z M 33.04,77.526513 c 19,0.68 48.72,-2.14 48.72,-2.14 0,0 31.35,-25 39.9,-25.1 8.55,-0.1 89.58,19.84 89.58,19.84 l 21.05,-10.14 a 125.35,125.35 0 0 0 -222.18,16 c 7.38,0.67 15.6,1.28 22.94,1.55 z m 143.7,112.249997 -29.9,6.2 -38.84,-27.27 6.5,23.32 -15.64,2 -34.3,-16.15 -49.25,-29.1 c 0,0 -1.47,-22.22 -9.23,-24.83 l -6,-2.18 -0.08,4.47 a 125.31,125.31 0 0 0 250.61,0.11 z"
     id="path6"
     inkscape:connector-curvature="0"
     style="fill:#42266a" />
</svg>
